<svg width="25" height="24" viewBox="0 0 25 24" fill="none" xmlns="http://www.w3.org/2000/svg">
<g clip-path="url(#clip0_25436_89)">
<path d="M8.08027 4.08L6.65027 2.65C4.25027 4.48 2.67027 7.3 2.53027 10.5H4.53027C4.68027 7.85 6.04027 5.53 8.08027 4.08ZM20.4703 10.5H22.4703C22.3203 7.3 20.7403 4.48 18.3503 2.65L16.9303 4.08C18.9503 5.53 20.3203 7.85 20.4703 10.5ZM18.5003 11C18.5003 7.93 16.8603 5.36 14.0003 4.68V4C14.0003 3.17 13.3303 2.5 12.5003 2.5C11.6703 2.5 11.0003 3.17 11.0003 4V4.68C8.13027 5.36 6.50027 7.92 6.50027 11V16L4.50027 18V19H20.5003V18L18.5003 16V11ZM12.5003 22C12.6403 22 12.7703 21.99 12.9003 21.96C13.5503 21.82 14.0803 21.38 14.3403 20.78C14.4403 20.54 14.4903 20.28 14.4903 20H10.4903C10.5003 21.1 11.3903 22 12.5003 22Z" fill="#FF4900"/>
</g>
<defs>
<clipPath id="clip0_25436_89">
<rect width="24" height="24" fill="white" transform="translate(0.5)"/>
</clipPath>
</defs>
</svg>
