<svg width="454" height="436" viewBox="0 0 454 436" fill="none" xmlns="http://www.w3.org/2000/svg">
<path fill-rule="evenodd" clip-rule="evenodd" d="M45.4595 383.133C45.4595 375.913 91.2542 370.028 147.731 370.028C204.208 370.028 249.953 375.913 249.953 383.133C249.953 390.354 204.208 396.189 147.731 396.189C91.2542 396.189 45.4595 390.354 45.4595 383.133ZM70.2855 407.267C70.2855 400.047 116.08 394.211 172.557 394.211C229.034 394.211 274.828 400.047 274.828 407.267C274.828 414.488 229.034 420.373 172.557 420.373C116.08 420.373 70.2855 414.488 70.2855 407.267ZM209.697 422.301C209.697 414.784 254.256 408.652 309.15 408.652C364.093 408.652 425.071 413.993 425.071 421.51C425.071 429.077 364.093 436 309.15 436C254.256 436 209.697 429.868 209.697 422.301Z" fill="#3B0DA4"/>
<path d="M1 353.461H73.7967M240.21 353.461H266.718M331.404 353.461H375.072M386.892 353.461H452.122M152.528 39.7721V43.679M152.528 48.1794V52.0862M146.396 45.9539H150.303M154.803 45.9539H158.71M320.425 12.2261V16.1824M320.425 20.6333V24.5896M314.243 18.4079H318.2M322.651 18.4079H326.607M24.0952 213.406V217.313M24.0952 221.813V225.77M17.9134 219.588H21.8697M26.3206 219.588H30.2769M422.845 294.61V298.566M422.845 303.017V306.974M416.663 300.792H420.62M425.071 300.792H429.027" stroke="#263238" stroke-width="1.97817" stroke-linecap="round" stroke-linejoin="round"/>
<path d="M371.957 122.955C371.957 109.8 382.639 99.167 395.745 99.167C403.36 99.167 410.086 102.728 414.438 108.267C417.603 112.322 419.532 117.416 419.532 122.955M371.957 122.955C371.957 136.06 382.639 146.693 395.745 146.693C408.85 146.693 419.532 136.06 419.532 122.955M371.957 122.955H419.532M395.497 99.167V108.365V146.693M415.526 109.997C415.526 109.997 405.734 113.657 395.843 113.657C386.002 113.657 376.012 109.997 376.012 109.997M415.477 135.021C415.477 135.021 405.685 131.362 395.843 131.362C385.953 131.362 376.012 135.021 376.012 135.021M399.8 145.753C399.8 145.753 405.586 134.428 405.586 123.053C405.586 111.629 399.8 100.156 399.8 100.156M407.861 143.033C407.861 143.033 413.548 132.994 413.548 122.905C413.548 112.816 407.861 102.629 407.861 102.629M391.64 145.753C391.64 145.753 385.854 134.428 385.854 123.053C385.854 111.629 391.64 100.156 391.64 100.156M383.529 143.033C383.529 143.033 377.892 132.994 377.892 122.905C377.892 112.816 383.529 102.629 383.529 102.629" stroke="#FF4900" stroke-width="1.97817" stroke-linecap="round" stroke-linejoin="round"/>
<path fill-rule="evenodd" clip-rule="evenodd" d="M5.79736 147.335C5.79736 133.884 16.7268 122.954 30.1783 122.954C43.6794 122.954 54.6088 133.884 54.6088 147.335C54.6088 160.836 43.6794 171.766 30.1783 171.766C16.7268 171.766 5.79736 160.836 5.79736 147.335Z" stroke="#263238" stroke-width="1.97817" stroke-linecap="round" stroke-linejoin="round"/>
<path fill-rule="evenodd" clip-rule="evenodd" d="M17.9136 139.225C17.9136 136.95 19.7928 135.071 22.1172 135.071H38.2887C40.6131 135.071 42.4924 136.95 42.4924 139.225V155.446C42.4924 157.77 40.6131 159.65 38.2887 159.65H22.1172C19.7928 159.65 17.9136 157.77 17.9136 155.446V139.225ZM25.1834 147.335C25.1834 144.566 27.4088 142.291 30.1782 142.291C32.9971 142.291 35.2226 144.566 35.2226 147.335C35.2226 150.105 32.9971 152.38 30.1782 152.38C27.4088 152.38 25.1834 150.105 25.1834 147.335Z" stroke="#FF4900" stroke-width="1.97817" stroke-linecap="round" stroke-linejoin="round"/>
<path fill-rule="evenodd" clip-rule="evenodd" d="M35.3711 140.51C35.3711 139.472 36.2118 138.681 37.2009 138.681C38.2394 138.681 39.0307 139.472 39.0307 140.51C39.0307 141.5 38.2394 142.291 37.2009 142.291C36.2118 142.291 35.3711 141.5 35.3711 140.51Z" fill="#FF4900"/>
<path fill-rule="evenodd" clip-rule="evenodd" d="M219.736 24.2932C219.736 22.9084 220.676 21.771 221.813 21.771H243.277C244.414 21.771 245.304 22.9084 245.304 24.2932V40.0691C245.304 41.4538 244.414 42.5913 243.277 42.5913H221.813C220.676 42.5913 219.736 41.4538 219.736 40.0691V24.2932ZM228.292 26.2713V37.992L234.078 34.8764L239.024 32.1564L228.292 26.2713Z" stroke="#263238" stroke-width="1.97817" stroke-linecap="round" stroke-linejoin="round"/>
<path fill-rule="evenodd" clip-rule="evenodd" d="M208.708 32.1564C208.708 19.0016 219.391 8.3689 232.545 8.3689C245.7 8.3689 256.333 19.0016 256.333 32.1564C256.333 45.3113 245.7 55.9934 232.545 55.9934C219.391 55.9934 208.708 45.3113 208.708 32.1564Z" stroke="#FF4900" stroke-width="1.97817" stroke-linecap="round" stroke-linejoin="round"/>
<path fill-rule="evenodd" clip-rule="evenodd" d="M72.561 27.3591C72.561 12.8196 84.3312 1 98.9202 1C113.46 1 125.23 12.8196 125.23 27.3591C125.23 41.8987 113.46 53.6688 98.9202 53.6688C84.3312 53.6688 72.561 41.8987 72.561 27.3591Z" stroke="#3B0DA4" stroke-width="1.97817" stroke-linecap="round" stroke-linejoin="round"/>
<path d="M90.0181 22.8096V40.4647M106.239 28.5463L113.905 28.6946M106.239 34.1346L113.905 34.2335M85.2705 23.2052V40.2669C85.2705 40.2669 111.036 41.8495 113.014 38.2887C114.646 35.3215 114.943 24.0954 112.025 23.403C106.338 22.0677 101.887 22.5128 101.887 22.5128C101.887 22.5128 101.343 10.3471 96.3977 11.2372C94.8646 11.4845 93.7272 22.5128 93.7272 22.5128L85.2705 23.2052Z" stroke="#FF4900" stroke-width="1.97817" stroke-linecap="round" stroke-linejoin="round"/>
<path fill-rule="evenodd" clip-rule="evenodd" d="M393.865 24.5897C393.865 12.0283 404.053 1.79126 416.664 1.79126C429.225 1.79126 439.462 12.0283 439.462 24.5897C439.462 37.2005 429.225 47.3881 416.664 47.3881C404.053 47.3881 393.865 37.2005 393.865 24.5897Z" stroke="#3B0DA4" stroke-width="1.97817" stroke-linecap="round" stroke-linejoin="round"/>
<path fill-rule="evenodd" clip-rule="evenodd" d="M423.29 15.935C419.482 16.0339 416.366 23.1553 416.366 23.1553C416.366 23.1553 413.844 15.2426 409.393 16.0833C408.75 16.2317 408.009 16.479 407.465 17.1713C402.173 24.0455 416.366 36.3596 416.366 36.3596C416.366 36.3596 431.302 22.7102 425.466 16.7262C424.823 16.0339 423.933 15.8855 423.29 15.935Z" fill="#FF4900"/>
<path fill-rule="evenodd" clip-rule="evenodd" d="M269.685 152.924C269.685 142.588 278.092 134.18 288.428 134.18C298.764 134.18 307.122 142.588 307.122 152.924C307.122 163.26 298.764 171.617 288.428 171.617C278.092 171.617 269.685 163.26 269.685 152.924Z" stroke="#263238" stroke-width="1.97817" stroke-linecap="round" stroke-linejoin="round"/>
<path fill-rule="evenodd" clip-rule="evenodd" d="M286.45 164.743C284.917 163.804 284.422 161.825 285.313 160.292C286.203 158.759 288.181 158.265 289.714 159.155C291.247 160.094 291.791 162.073 290.852 163.606C289.961 165.139 287.983 165.633 286.45 164.743ZM278.884 150.847C277.35 149.956 276.807 147.978 277.746 146.445C278.636 144.912 280.615 144.417 282.148 145.308C283.681 146.247 284.175 148.225 283.285 149.709C282.395 151.242 280.417 151.786 278.884 150.847ZM294.66 150.896C293.126 149.956 292.632 147.978 293.522 146.445C294.462 144.912 296.44 144.417 297.973 145.308C299.506 146.247 300.001 148.225 299.061 149.759C298.171 151.292 296.193 151.786 294.66 150.896Z" fill="#263238"/>
<path d="M281.752 149.709L288.083 161.924M282.099 148.126L295.896 147.879" stroke="#263238" stroke-width="1.97817" stroke-linecap="round" stroke-linejoin="round"/>
<path fill-rule="evenodd" clip-rule="evenodd" d="M285.461 97.0898L316.321 103.816L310.485 115.091L284.868 98.4251L285.461 97.0898ZM291.247 53.6689L297.479 61.5322L278.587 77.5554L276.955 75.4783L291.247 53.6689Z" fill="#3B0DA4"/>
<path fill-rule="evenodd" clip-rule="evenodd" d="M374.429 49.5146L353.213 51.6905L354.202 56.5371L366.961 55.1523L328.387 81.3137L325.271 66.6752L290.06 83.094L291.346 85.9624L320.524 74.8352L322.898 93.0838L370.868 59.356L367.802 70.9283L372.599 71.9174L377.297 52.4324C377.644 50.7015 376.16 49.1684 374.429 49.5146Z" fill="#FF4900"/>
<path d="M381.254 337.438V364.341V416.663M326.607 337.438V348.317V369.484" stroke="#263238" stroke-width="1.97817" stroke-linecap="round" stroke-linejoin="round"/>
<path fill-rule="evenodd" clip-rule="evenodd" d="M365.577 207.225C373.885 207.373 378.237 211.082 381.6 218.747C389.909 237.54 390.848 277.054 390.848 322.255V328.091C390.848 330.761 388.771 332.987 386.249 332.987H310.683C308.111 332.987 306.034 330.761 306.034 328.091V322.255C306.034 319.535 308.111 317.359 310.683 317.359H340.306C340.306 273.988 340.355 236.056 348.466 218.055C351.779 210.637 357.269 207.027 365.577 207.225Z" fill="#263238"/>
<path d="M381.254 266.124V320.524" stroke="white" stroke-width="1.97817" stroke-linecap="round" stroke-linejoin="round"/>
<path fill-rule="evenodd" clip-rule="evenodd" d="M309.397 281.455C309.397 281.455 265.531 294.412 257.964 306.38C250.447 318.348 240.804 396.634 240.804 396.634H289.269L326.607 281.257L309.397 281.455Z" fill="#263238"/>
<path fill-rule="evenodd" clip-rule="evenodd" d="M320.871 283.681C320.871 283.681 274.532 296.638 270.378 311.919C266.224 327.25 288.726 408.207 288.726 408.207H343.323L315.925 327.448C315.925 327.448 360.187 324.728 366.517 313.353C376.161 296.094 359.791 274.383 359.791 274.383L320.871 283.681Z" fill="#FF4900"/>
<g opacity="0.3">
<path fill-rule="evenodd" clip-rule="evenodd" d="M342.729 406.377V408.207H343.322L342.729 406.377ZM334.816 382.985V408.256H336.844V388.919L334.816 382.985ZM326.854 359.593V408.256H328.881V365.528L326.854 359.593ZM318.892 336.152V408.256H320.919V342.086L318.892 336.152ZM273.245 307.023C272.405 308.012 271.762 309.001 271.218 310.04V331.305C271.762 335.014 272.454 338.921 273.245 343.125V307.023ZM281.208 300.396C280.466 300.841 279.823 301.336 279.18 301.781V370.572C279.872 373.539 280.515 375.864 281.208 378.732V300.396ZM289.12 295.846C288.428 296.193 287.785 296.539 287.142 296.934V402.173C287.637 404.151 288.725 408.207 288.725 408.207H289.12V295.846ZM297.082 292.137C296.39 292.434 295.747 292.78 295.055 293.077V408.207H297.082V292.137ZM305.045 289.17C304.352 289.417 303.709 289.615 303.017 289.912V408.256H305.045V289.17ZM366.516 286.846V313.353C367.456 311.721 368.049 310.04 368.544 308.358V293.176C368 290.951 367.307 288.824 366.516 286.846ZM312.957 286.203C312.413 286.351 311.572 286.747 310.979 286.945V408.256H312.957V286.203ZM320.919 283.681C320.919 283.681 319.287 284.175 318.892 284.324V327.201C319.485 327.151 319.93 327.052 320.919 327.003V283.681ZM328.832 281.752L326.804 282.247V326.261C327.447 326.211 328.189 326.063 328.832 326.014V281.752ZM336.794 279.823L334.767 280.318V325.173C335.508 325.025 336.052 324.975 336.794 324.876V279.823ZM344.756 277.944L342.729 278.389V323.788C343.421 323.64 344.064 323.541 344.756 323.393V277.944ZM352.669 276.015L350.691 276.51V321.859C351.383 321.662 352.026 321.464 352.669 321.266V276.015ZM359.79 274.284L358.604 274.581V318.942C359.296 318.645 359.988 318.348 360.631 318.002V275.521C360.433 275.224 359.79 274.284 359.79 274.284Z" fill="white"/>
</g>
<path fill-rule="evenodd" clip-rule="evenodd" d="M384.37 223.347C384.37 223.347 386.101 191.449 397.921 183.239C404.696 178.59 419.681 178.145 425.269 191.251C430.857 204.356 422.499 259.448 403.509 268.053C384.469 276.708 369.583 262.712 369.583 262.712C369.583 262.712 363.402 286.055 330.366 289.764C312.315 291.841 303.018 282.543 303.018 282.543C303.018 282.543 291.149 295.649 278.538 294.511C264.345 293.275 254.553 285.708 260.091 262.712C265.334 240.804 280.318 224.583 297.083 215.483C311.722 207.521 324.679 205.296 344.065 207.224C363.451 209.153 384.37 223.347 384.37 223.347Z" fill="#3B0DA4"/>
<path fill-rule="evenodd" clip-rule="evenodd" d="M325.618 214.791C325.618 213.456 326.706 212.417 327.992 212.417C329.278 212.417 330.366 213.456 330.366 214.791C330.366 216.077 329.278 217.165 327.992 217.165C326.706 217.165 325.618 216.077 325.618 214.791ZM324.926 223.396C324.926 222.061 326.014 221.022 327.3 221.022C328.635 221.022 329.673 222.061 329.673 223.396C329.673 224.682 328.635 225.72 327.3 225.72C326.014 225.72 324.926 224.682 324.926 223.396Z" fill="#263238"/>
<path fill-rule="evenodd" clip-rule="evenodd" d="M353.263 243.623C353.263 240.062 350.493 237.243 347.13 237.243H293.126C289.763 237.243 287.043 240.062 287.043 243.623V274.136C287.043 277.647 289.763 280.466 293.126 280.466H347.13C350.493 280.466 353.263 277.647 353.263 274.136V243.623Z" fill="white"/>
<path d="M346.982 273.79H308.754M323.442 251.288C323.442 249.359 321.958 247.826 320.128 247.826C318.299 247.826 316.864 249.359 316.864 251.288C316.864 253.217 318.299 254.75 320.128 254.75C321.958 254.75 323.442 253.217 323.442 251.288Z" stroke="#3B0DA4" stroke-width="1.97817" stroke-linecap="round" stroke-linejoin="round"/>
<path d="M278.538 266.125C278.538 266.125 282.593 250.349 285.907 251.091C288.528 251.635 288.429 253.959 288.38 255.937C288.281 259.993 285.61 265.383 288.726 266.966C291.891 268.548 302.425 258.311 305.689 261.921C308.557 265.136 295.402 273.395 295.402 273.395C295.402 273.395 299.606 271.12 302.078 268.993C304.798 266.768 305.491 266.125 305.491 266.125C305.491 266.125 310.486 269.834 304.551 274.928C298.666 280.071 296.836 279.477 296.836 279.477C296.836 279.477 299.309 279.181 302.425 276.708C306.331 273.592 307.172 271.862 307.172 271.862C307.172 271.862 310.337 277.846 303.611 283.187C291.594 292.781 279.626 285.511 279.626 285.511M402.569 183.338C402.569 183.338 400.196 173.151 404.795 168.947C409.444 164.694 417.455 167.018 417.455 167.018C417.455 167.018 418.692 163.359 419.384 160.342C420.027 157.276 420.62 154.457 422.401 154.309C424.181 154.21 425.714 160.243 424.725 163.606C423.686 167.018 422.945 168.997 422.945 168.997C422.945 168.997 424.478 165.238 424.923 163.309C426.357 157.226 425.417 156.336 426.555 153.765C427.593 151.589 430.066 152.182 431.154 156.386C431.945 159.353 431.747 162.024 430.363 165.881C429.225 169.096 428.533 171.173 428.533 171.173C428.533 171.173 431.748 170.184 433.973 166.227C435.605 163.309 435.209 159.254 436.891 159.304C438.523 159.353 440.501 162.32 438.819 167.958C437.138 173.546 434.22 177.058 430.017 178.739C425.813 180.371 419.334 181.558 416.763 185.218" stroke="#263238" stroke-width="1.97817" stroke-linecap="round" stroke-linejoin="round"/>
<path fill-rule="evenodd" clip-rule="evenodd" d="M321.019 178.492C321.019 178.492 315.579 176.365 315.925 172.359C316.271 168.403 319.486 165.485 324.58 165.386C330.563 165.238 336.053 171.519 336.053 171.519C336.053 171.519 344.411 168.452 348.763 174.387C352.373 179.233 349.257 185.761 349.257 185.761C349.257 185.761 353.609 190.311 350.691 195.059C347.774 199.757 339.91 198.521 339.91 198.521C339.91 198.521 348.169 188.036 342.037 180.272C333.283 169.244 321.019 178.492 321.019 178.492ZM352.917 184.476C352.917 184.476 357.467 173.447 363.352 168.947C368.841 164.694 377.693 163.161 380.265 169.046C382.392 173.744 379.721 178.937 373.836 181.657C364.044 186.305 352.917 184.476 352.917 184.476ZM331.899 175.03C331.899 175.03 330.761 180.717 334.668 186.256C338.476 191.646 343.471 192.833 343.471 192.833C343.471 192.833 348.021 183.487 340.801 177.404C337.932 174.98 331.899 175.03 331.899 175.03Z" fill="#263238"/>
<path fill-rule="evenodd" clip-rule="evenodd" d="M317.607 187.888C317.607 180.42 323.64 174.387 331.059 174.387C338.526 174.387 344.56 180.42 344.56 187.888C344.56 195.306 338.526 201.339 331.059 201.339C323.64 201.339 317.607 195.306 317.607 187.888Z" stroke="#263238" stroke-width="1.97817" stroke-linecap="round" stroke-linejoin="round"/>
<path fill-rule="evenodd" clip-rule="evenodd" d="M328.733 187.888C328.832 187.047 329.623 186.454 330.415 186.553C331.255 186.701 331.849 187.443 331.701 188.283C331.602 189.124 330.86 189.668 330.019 189.569C329.178 189.47 328.634 188.679 328.733 187.888Z" fill="#FF4900"/>
<path fill-rule="evenodd" clip-rule="evenodd" d="M326.261 184.179C326.36 183.437 327.003 182.992 327.695 183.041C328.388 183.14 328.882 183.833 328.783 184.525C328.684 185.217 328.041 185.712 327.349 185.613C326.657 185.514 326.162 184.871 326.261 184.179ZM320.178 180.569C320.277 179.876 320.92 179.382 321.612 179.481C322.305 179.58 322.799 180.222 322.7 180.915C322.601 181.607 321.958 182.102 321.266 182.003C320.574 181.904 320.079 181.261 320.178 180.569Z" fill="#263238"/>
<path d="M326.063 188.481C326.063 188.481 325.37 189.915 324.233 190.262C322.551 190.756 321.068 189.866 321.068 189.866M324.579 182.003L320.425 186.107L323.293 187.096M330.019 414.29C330.019 418.444 330.365 429.868 330.365 429.868C330.365 429.868 281.405 432.835 276.509 430.461C273.196 428.879 280.713 424.329 287.933 420.125C294.857 416.169 302.967 413.251 302.967 413.251" stroke="#263238" stroke-width="1.97817" stroke-linecap="round" stroke-linejoin="round"/>
<path d="M301.237 420.274L292.879 413.053M297.083 422.103L288.725 414.883" stroke="#FF4900" stroke-width="1.97817" stroke-linecap="round" stroke-linejoin="round"/>
<path d="M283.335 400.393C283.335 404.547 283.681 415.971 283.681 415.971C283.681 415.971 234.721 418.988 229.825 416.564C226.512 414.982 234.029 410.432 241.249 406.228C248.173 402.272 256.283 399.354 256.283 399.354" stroke="#263238" stroke-width="1.97817" stroke-linecap="round" stroke-linejoin="round"/>
<path d="M254.552 406.377L246.194 399.156M250.398 408.207L242.04 400.986" stroke="#FF4900" stroke-width="1.97817" stroke-linecap="round" stroke-linejoin="round"/>
<path d="M136.654 99.2162L99.7608 133.191M125.23 120.135L98.92 145.802M212.071 207.274L175.179 241.199M200.648 228.144L174.288 253.86M136.654 367.407C136.654 366.517 137.346 365.824 138.236 365.824H168.354C169.195 365.824 169.887 366.517 169.887 367.407V371.61C169.887 372.501 169.195 373.193 168.354 373.193H138.236C137.346 373.193 136.654 372.501 136.654 371.61V367.407ZM77.1602 91.7981C77.1602 83.193 84.331 76.22 93.1834 76.22H218.847C227.699 76.22 234.87 83.193 234.87 91.7981V365.775C234.87 374.38 227.699 381.353 218.847 381.353H93.1834C84.331 381.353 77.1602 374.38 77.1602 365.775V91.7981ZM90.4634 101.738C90.4634 94.073 96.4473 87.8912 103.816 87.8912H208.214C215.583 87.8912 221.567 94.073 221.567 101.738V345.152C221.567 352.768 215.583 358.95 208.214 358.95H103.816C96.4473 358.95 90.4634 352.768 90.4634 345.152V101.738Z" stroke="#263238" stroke-width="1.97817" stroke-linecap="round" stroke-linejoin="round"/>
<path fill-rule="evenodd" clip-rule="evenodd" d="M219.984 99.2163L205.692 108.118L207.126 113.36L217.808 112.668C217.808 112.668 222.011 122.213 229.182 124.636C236.353 127.059 238.776 126.268 244.019 123.152C249.211 120.086 249.211 111.877 249.211 111.877L273.988 111.135C273.988 111.135 276.807 100.008 274.285 92.2432C271.812 84.4789 260.289 76.4673 260.289 76.4673L238.084 90.4134C238.084 90.4134 235.661 88.8309 234.375 89.2759C233.089 89.721 232.941 92.1443 232.941 92.1443C232.941 92.1443 230.27 90.3639 228.638 91.2047C226.957 92.0454 226.215 95.5072 226.215 95.5072C226.215 95.5072 223.099 93.529 221.517 94.4686C219.984 95.3588 219.984 99.2163 219.984 99.2163ZM80.6217 254.948C81.858 262.317 86.1111 280.812 80.8195 281.06C77.1599 281.258 76.0224 275.076 74.341 267.806C73.0057 262.02 71.3242 253.81 73.9453 252.03C77.1599 249.805 80.1766 252.574 80.6217 254.948Z" fill="white"/>
<path fill-rule="evenodd" clip-rule="evenodd" d="M136.653 214.791C136.653 214.791 162.468 289.665 162.815 301.88C163.21 314.145 158.562 390.997 158.562 390.997H213.654C213.654 390.997 210.587 315.678 206.582 294.758C201.834 269.685 170.035 207.224 170.035 207.224L136.653 214.791Z" fill="#263238"/>
<path fill-rule="evenodd" clip-rule="evenodd" d="M128.047 207.224C128.047 207.224 114.349 217.313 112.865 227.006C111.431 236.699 119.64 248.519 119.64 248.519L110.145 281.801L91.5007 319.486C91.5007 319.486 91.0556 346.092 91.8469 348.664C93.0833 352.719 96.9407 357.565 103.073 357.813C109.65 358.011 125.229 357.912 125.229 357.912C125.229 357.912 150.104 307.32 153.269 294.017C156.434 280.763 162.814 210.142 162.814 210.142L128.047 207.224Z" fill="#3B0DA4"/>
<path d="M153.27 221.022C153.27 221.022 148.967 278.735 144.764 291.495C140.511 304.204 114.25 358.95 114.25 358.95" stroke="#263238" stroke-width="1.97817" stroke-linecap="round" stroke-linejoin="round"/>
<path fill-rule="evenodd" clip-rule="evenodd" d="M121.075 191.844C121.075 191.844 119.295 217.956 154.507 215.681C178.64 214.148 191.004 186.305 191.004 186.305C191.004 186.305 220.083 204.405 236.502 193.971C252.921 183.486 259.152 134.18 250.942 124.932C245.156 118.454 226.512 117.761 219.49 127.108C211.972 136.95 214.692 151.687 214.692 151.687C214.692 151.687 195.059 134.131 152.083 139.027C119.147 142.736 105.102 156.83 90.2654 170.331C81.7593 178.145 48.7733 222.951 55.499 247.975C57.7245 256.234 75.2808 269.537 90.5127 253.415C104.904 238.183 121.075 191.844 121.075 191.844Z" fill="#FF4900"/>
<g opacity="0.3">
<path fill-rule="evenodd" clip-rule="evenodd" d="M83.7371 255.245C81.0171 255.245 78.7917 257.47 78.7917 260.19C78.7917 260.338 78.8411 260.437 78.8906 260.536C81.5611 259.893 84.2811 258.607 87.0011 256.53C86.1109 255.789 85.0229 255.245 83.7371 255.245ZM98.2272 236.798C95.4578 236.798 93.2323 238.974 93.2323 241.744C93.2323 243.722 94.4192 245.403 96.1007 246.194C97.7821 243.672 99.4636 240.804 101.096 237.837C100.304 237.194 99.3152 236.798 98.2272 236.798ZM70.2855 236.798C67.5161 236.798 65.2907 238.974 65.2907 241.744C65.2907 244.464 67.5161 246.689 70.2855 246.689C73.0055 246.689 75.231 244.464 75.231 241.744C75.231 238.974 73.0055 236.798 70.2855 236.798ZM59.3561 219.786C58.2681 222.555 57.1802 225.374 56.4878 228.094C58.9111 227.748 60.7903 225.77 60.7903 223.297C60.7903 221.912 60.2463 220.676 59.3561 219.786ZM110.492 218.55C108.316 219.094 106.733 220.973 106.733 223.297C106.733 224.088 106.981 224.781 107.327 225.473C108.415 223.149 109.453 220.824 110.492 218.55ZM83.7371 218.302C81.0171 218.302 78.7917 220.528 78.7917 223.297C78.7917 226.017 81.0171 228.243 83.7371 228.243C86.5065 228.243 88.732 226.017 88.732 223.297C88.732 220.528 86.5065 218.302 83.7371 218.302ZM182.052 199.806C179.283 199.806 177.057 202.081 177.057 204.801C177.057 204.95 177.156 205.048 177.156 205.197C179.085 203.466 180.766 201.636 182.25 199.856C182.151 199.856 182.102 199.806 182.052 199.806ZM154.111 199.806C151.341 199.806 149.116 202.081 149.116 204.801C149.116 207.521 151.341 209.747 154.111 209.747C156.831 209.747 159.056 207.521 159.056 204.801C159.056 202.081 156.831 199.806 154.111 199.806ZM126.169 199.806C124.883 199.806 123.746 200.301 122.905 201.092C123.993 203.763 125.575 206.631 128.394 209.104C129.977 208.263 131.114 206.68 131.114 204.801C131.114 202.081 128.889 199.806 126.169 199.806ZM98.2272 199.806C95.4578 199.806 93.2323 202.081 93.2323 204.801C93.2323 207.521 95.4578 209.747 98.2272 209.747C100.947 209.747 103.173 207.521 103.173 204.801C103.173 202.081 100.947 199.806 98.2272 199.806ZM70.2855 199.806C69.7415 199.806 69.247 199.955 68.7525 200.103C67.615 202.032 66.5765 203.961 65.5379 205.988C66.0819 208.115 67.9612 209.747 70.2855 209.747C73.0055 209.747 75.231 207.521 75.231 204.801C75.231 202.081 73.0055 199.806 70.2855 199.806ZM223.495 181.36C220.775 181.36 218.5 183.585 218.5 186.305C218.5 189.075 220.775 191.251 223.495 191.251C226.215 191.251 228.44 189.075 228.44 186.305C228.44 183.585 226.215 181.36 223.495 181.36ZM195.553 181.36C192.833 181.36 190.558 183.585 190.558 186.305C190.558 186.553 190.657 186.701 190.707 186.899C190.756 186.849 191.003 186.305 191.003 186.305C191.003 186.305 194.07 188.086 198.471 190.212C199.658 189.322 200.499 187.937 200.499 186.305C200.499 183.585 198.323 181.36 195.553 181.36ZM167.612 181.36C164.892 181.36 162.617 183.585 162.617 186.305C162.617 189.075 164.892 191.251 167.612 191.251C170.332 191.251 172.557 189.075 172.557 186.305C172.557 183.585 170.332 181.36 167.612 181.36ZM139.67 181.36C136.95 181.36 134.675 183.585 134.675 186.305C134.675 189.075 136.95 191.251 139.67 191.251C142.39 191.251 144.615 189.075 144.615 186.305C144.615 183.585 142.39 181.36 139.67 181.36ZM111.679 181.36C108.959 181.36 106.733 183.585 106.733 186.305C106.733 189.075 108.959 191.251 111.679 191.251C114.448 191.251 116.674 189.075 116.674 186.305C116.674 183.585 114.448 181.36 111.679 181.36ZM83.7371 181.36C81.0171 181.36 78.7917 183.585 78.7917 186.305C78.7917 189.075 81.0171 191.251 83.7371 191.251C86.5065 191.251 88.732 189.075 88.732 186.305C88.732 183.585 86.5065 181.36 83.7371 181.36ZM98.5734 162.963C96.793 164.512 95.0292 166.079 93.2818 167.661C93.2818 167.711 93.2323 167.76 93.2323 167.859C93.2323 170.579 95.4578 172.804 98.2272 172.804C100.947 172.804 103.173 170.579 103.173 167.859C103.173 165.238 101.096 163.111 98.5734 162.963ZM237.936 162.864C235.166 162.864 232.941 165.089 232.941 167.859C232.941 170.579 235.166 172.804 237.936 172.804C240.656 172.804 242.881 170.579 242.881 167.859C242.881 165.089 240.656 162.864 237.936 162.864ZM209.994 162.864C207.224 162.864 204.999 165.089 204.999 167.859C204.999 170.579 207.224 172.804 209.994 172.804C212.714 172.804 214.939 170.579 214.939 167.859C214.939 165.089 212.714 162.864 209.994 162.864ZM182.052 162.864C179.283 162.864 177.057 165.089 177.057 167.859C177.057 170.579 179.283 172.804 182.052 172.804C184.772 172.804 186.998 170.579 186.998 167.859C186.998 165.089 184.772 162.864 182.052 162.864ZM154.111 162.864C151.341 162.864 149.116 165.089 149.116 167.859C149.116 170.579 151.341 172.804 154.111 172.804C156.831 172.804 159.056 170.579 159.056 167.859C159.056 165.089 156.831 162.864 154.111 162.864ZM126.169 162.864C123.399 162.864 121.174 165.089 121.174 167.859C121.174 170.579 123.399 172.804 126.169 172.804C128.889 172.804 131.114 170.579 131.114 167.859C131.114 165.089 128.889 162.864 126.169 162.864ZM116.575 149.858C114.25 151.143 112.025 152.528 109.948 153.962C110.492 154.16 111.085 154.308 111.679 154.308C114.25 154.308 116.327 152.33 116.575 149.858ZM251.437 144.418C248.717 144.418 246.491 146.594 246.491 149.363C246.491 152.083 248.717 154.308 251.437 154.308C252.228 154.308 252.97 154.111 253.613 153.764C253.959 150.896 254.206 148.127 254.354 145.456C253.514 144.813 252.574 144.418 251.437 144.418ZM223.495 144.418C220.775 144.418 218.5 146.594 218.5 149.363C218.5 152.083 220.775 154.308 223.495 154.308C226.215 154.308 228.44 152.083 228.44 149.363C228.44 146.594 226.215 144.418 223.495 144.418ZM195.553 144.418C192.833 144.418 190.558 146.594 190.558 149.363C190.558 152.083 192.833 154.308 195.553 154.308C198.323 154.308 200.499 152.083 200.499 149.363C200.499 146.594 198.323 144.418 195.553 144.418ZM167.612 144.418C164.892 144.418 162.617 146.594 162.617 149.363C162.617 152.083 164.892 154.308 167.612 154.308C170.332 154.308 172.557 152.083 172.557 149.363C172.557 146.594 170.332 144.418 167.612 144.418ZM139.67 144.418C136.95 144.418 134.675 146.594 134.675 149.363C134.675 152.083 136.95 154.308 139.67 154.308C142.39 154.308 144.615 152.083 144.615 149.363C144.615 146.594 142.39 144.418 139.67 144.418ZM237.936 125.922C235.166 125.922 232.941 128.147 232.941 130.867C232.941 133.587 235.166 135.812 237.936 135.812C240.656 135.812 242.881 133.587 242.881 130.867C242.881 128.147 240.656 125.922 237.936 125.922Z" fill="white"/>
</g>
<path d="M175.178 141.895L171.271 155.001L161.924 143.725L153.27 157.82L145.456 144.714M190.806 161.479C190.806 161.479 192.734 166.672 192.487 174.139C192.388 178.393 191.053 183.239 191.053 183.239" stroke="white" stroke-width="1.97817" stroke-linecap="round" stroke-linejoin="round"/>
<path d="M259.893 76.8628L238.48 90.0176M273.79 111.234L229.182 112.42M218.649 112.717L207.126 113.36L205.642 108.167L219.984 99.7107" stroke="#263238" stroke-width="1.97817" stroke-linecap="round" stroke-linejoin="round"/>
<path fill-rule="evenodd" clip-rule="evenodd" d="M259.942 75.9233C259.942 75.9233 271.564 77.8521 275.224 90.7596C279.477 105.497 274.482 111.877 274.482 111.877C274.482 111.877 264.542 107.574 260.536 95.3094C256.678 83.7371 259.942 75.9233 259.942 75.9233Z" fill="#263238"/>
<path d="M244.019 124.636C244.019 124.636 246.689 121.372 247.728 118.652C249.014 115.289 249.211 111.877 249.211 111.877M240.953 116.377C240.953 116.377 239.42 113.954 236.551 113.212C233.683 112.47 229.529 113.41 229.529 113.41C229.529 113.41 221.665 104.458 218.599 105.645C215.583 106.832 218.303 113.608 222.259 118.256C225.226 121.767 230.864 126.268 230.864 126.268M236.897 89.5727C239.172 91.1553 241.2 94.9632 240.953 98.7712C240.705 102.579 238.727 103.272 236.551 100.799C234.425 98.3261 232.595 93.1829 232.842 91.452C233.139 89.6716 234.622 88.0396 236.897 89.5727ZM230.963 92.2927C233.436 94.4192 235.71 99.513 235.068 103.519C234.425 107.574 232.051 108.365 229.825 105.25C227.6 102.134 226.166 95.1611 226.66 93.3313C227.155 91.452 228.49 90.1662 230.963 92.2927ZM224.286 95.3094C226.66 97.5349 228.391 101.887 227.897 106.486C227.452 110.541 224.929 109.898 222.852 106.684C220.775 103.469 220.132 99.8592 219.984 97.98C219.737 95.0127 221.913 93.0345 224.286 95.3094Z" stroke="#263238" stroke-width="1.97817" stroke-linecap="round" stroke-linejoin="round"/>
<path d="M261.229 86.5063C261.229 86.5063 267.757 87.6438 269.29 92.9849C270.774 98.3259 267.708 103.123 267.708 103.123" stroke="#3B0DA4" stroke-width="1.97817" stroke-linecap="round" stroke-linejoin="round"/>
<path fill-rule="evenodd" clip-rule="evenodd" d="M175.03 120.679C175.178 113.657 169.59 107.871 162.567 107.722C155.594 107.574 149.759 113.162 149.61 120.185C149.462 127.207 155.05 132.994 162.073 133.142C169.095 133.29 174.881 127.702 175.03 120.679Z" stroke="#263238" stroke-width="1.97817" stroke-linecap="round" stroke-linejoin="round"/>
<path fill-rule="evenodd" clip-rule="evenodd" d="M164.496 100.403C169.342 101.244 168.6 106.387 168.6 106.387C168.6 106.387 171.617 103.964 174.832 107.228C178.244 110.739 174.683 115.338 174.683 115.338C174.683 115.338 172.112 111.827 169.144 109.948C166.375 108.167 163.16 108.019 163.16 108.019C163.16 108.019 161.825 114.498 156.484 119.047C153.566 121.57 151.489 122.114 150.5 122.361C151.44 126.713 155.594 131.658 155.594 131.658C155.594 131.658 148.72 135.219 145.06 131.263C142.192 128.097 144.813 123.943 144.813 123.943C144.813 123.943 139.225 122.559 140.659 115.635C141.499 111.332 146.692 109.552 146.692 109.552C146.692 109.552 146.049 104.903 149.61 102.579C153.962 99.7107 158.264 103.321 158.264 103.321C158.264 103.321 160.984 99.7602 164.496 100.403Z" fill="#263238"/>
<path fill-rule="evenodd" clip-rule="evenodd" d="M162.32 121.075C162.369 120.284 161.726 119.592 160.886 119.592C160.094 119.592 159.402 120.234 159.402 121.026C159.353 121.866 159.996 122.509 160.836 122.559C161.628 122.559 162.32 121.916 162.32 121.075Z" fill="#FF4900"/>
<path fill-rule="evenodd" clip-rule="evenodd" d="M164.694 117.465C164.694 116.822 164.15 116.278 163.507 116.278C162.864 116.228 162.37 116.772 162.32 117.415C162.32 118.058 162.815 118.602 163.458 118.602C164.101 118.602 164.645 118.108 164.694 117.465ZM171.717 114.497C171.717 113.854 171.222 113.311 170.579 113.311C169.887 113.261 169.392 113.805 169.343 114.448C169.343 115.091 169.887 115.635 170.53 115.635C171.173 115.635 171.667 115.14 171.717 114.497Z" fill="#263238"/>
<path d="M167.364 114.992L171.073 119.888H168.304M62.8178 251.041C62.8178 251.041 53.2731 255.393 46.8441 265.481C43.4317 270.872 41.2063 276.411 43.2833 277.4C45.9044 278.686 49.3662 273.889 49.3662 273.889L54.5095 267.558C54.5095 267.558 53.0753 269.734 50.8004 274.68C48.7728 279.23 47.8331 283.829 50.3553 285.807C52.8775 287.835 55.4491 280.614 57.0811 277.449C58.6636 274.235 61.0374 270.872 61.0374 270.872C61.0374 270.872 59.1582 274.828 58.6636 276.905C57.8724 280.268 57.0811 286.846 60.988 286.846C63.5102 286.846 64.0541 283.285 65.2905 279.131C67.3181 272.356 69.7908 267.707 72.9065 267.806C75.4286 267.855 75.033 271.02 75.9726 274.828C77.4068 280.614 80.3741 282.098 82.3028 279.427C85.1711 275.422 80.473 256.827 80.473 256.827M168.502 394.953C168.502 399.107 168.205 410.531 168.205 410.531C168.205 410.531 217.115 413.498 222.011 411.124C225.325 409.492 217.857 404.992 210.587 400.788C203.713 396.783 195.603 393.865 195.603 393.865M163.408 125.674C163.062 124.339 163.853 122.954 165.188 122.608C166.523 122.262 167.908 123.053 168.254 124.438C168.601 125.773 167.809 127.108 166.474 127.454C165.139 127.801 163.754 127.009 163.408 125.674Z" stroke="#263238" stroke-width="1.97817" stroke-linecap="round" stroke-linejoin="round"/>
<path d="M197.334 400.937L205.642 393.667M201.488 402.767L209.846 395.546" stroke="#FF4900" stroke-width="1.97817" stroke-linecap="round" stroke-linejoin="round"/>
</svg>
