<svg width="51" height="51" viewBox="0 0 51 51" fill="none" xmlns="http://www.w3.org/2000/svg">
<path fill-rule="evenodd" clip-rule="evenodd" d="M1.09473 25.4753C1.09473 12.0237 12.0241 1.0943 25.4757 1.0943C38.9767 1.0943 49.9061 12.0237 49.9061 25.4753C49.9061 38.9763 38.9767 49.9057 25.4757 49.9057C12.0241 49.9057 1.09473 38.9763 1.09473 25.4753Z" stroke="#3B0DA4" stroke-width="1.97817" stroke-linecap="round" stroke-linejoin="round"/>
<path fill-rule="evenodd" clip-rule="evenodd" d="M13.2109 17.3649C13.2109 15.09 15.0902 13.2108 17.4146 13.2108H33.5861C35.9105 13.2108 37.7897 15.09 37.7897 17.3649V33.5859C37.7897 35.9103 35.9105 37.7895 33.5861 37.7895H17.4146C15.0902 37.7895 13.2109 35.9103 13.2109 33.5859V17.3649ZM20.4807 25.4754C20.4807 22.706 22.7062 20.4311 25.4756 20.4311C28.2945 20.4311 30.5199 22.706 30.5199 25.4754C30.5199 28.2449 28.2945 30.5198 25.4756 30.5198C22.7062 30.5198 20.4807 28.2449 20.4807 25.4754Z" stroke="#FF4900" stroke-width="1.97817" stroke-linecap="round" stroke-linejoin="round"/>
<path fill-rule="evenodd" clip-rule="evenodd" d="M30.668 18.6504C30.668 17.6119 31.5087 16.8206 32.4978 16.8206C33.5363 16.8206 34.3276 17.6119 34.3276 18.6504C34.3276 19.6395 33.5363 20.4308 32.4978 20.4308C31.5087 20.4308 30.668 19.6395 30.668 18.6504Z" fill="#FF4900"/>
</svg>
