<svg width="50" height="51" viewBox="0 0 50 51" fill="none" xmlns="http://www.w3.org/2000/svg">
<path fill-rule="evenodd" clip-rule="evenodd" d="M1.09473 25.5225C1.09473 12.2718 11.8215 1.5 25.1173 1.5C38.368 1.5 49.0947 12.2718 49.0947 25.5225C49.0947 38.7732 38.368 49.5 25.1173 49.5C11.8215 49.5 1.09473 38.7732 1.09473 25.5225Z" stroke="#3B0DA4" stroke-width="1.80282" stroke-linecap="round" stroke-linejoin="round"/>
<path d="M16.6672 22.2044V38.965M32.0663 27.6505L39.3433 27.7913M32.0663 32.9556L39.3433 33.0495M12.1602 22.58V38.7772C12.1602 38.7772 36.6202 40.2796 38.4982 36.8993C40.0475 34.0824 40.3292 23.4251 37.5592 22.7678C32.1602 21.5002 27.9348 21.9228 27.9348 21.9228C27.9348 21.9228 27.4184 10.3735 22.7235 11.2185C21.2681 11.4533 20.1883 21.9228 20.1883 21.9228L12.1602 22.58Z" stroke="#FF4900" stroke-width="1.87793" stroke-linecap="round" stroke-linejoin="round"/>
</svg>
