<svg width="276" height="290" viewBox="0 0 276 290" fill="none" xmlns="http://www.w3.org/2000/svg">
<g clip-path="url(#clip0_25446_473)">
<path d="M177.91 200.773L189.553 230.673L192.827 239.101L193.708 241.361C194.573 243.588 193.439 246.164 191.129 247.23L188.617 248.386C186.3 249.451 183.604 248.636 182.479 246.531L181.331 244.395L177.056 236.426L161.916 208.141L177.91 200.773Z" fill="#323232"/>
<path d="M179.343 196.684C179.83 197.619 179.816 198.749 179.307 199.815C178.804 200.884 177.843 201.796 176.664 202.344L163.919 208.211C162.73 208.757 161.413 208.891 160.275 208.581C159.138 208.27 158.272 207.545 157.876 206.565L138.523 158.541C137.749 156.606 138.986 154.232 141.328 153.152L149.52 149.381C151.859 148.304 154.474 148.909 155.431 150.752L179.343 196.684Z" fill="#5A5A5A"/>
<path d="M189.55 230.672L192.83 239.099L181.331 244.391L177.057 236.425L189.55 230.672Z" fill="#8C8C8C"/>
<path d="M176.663 202.344C177.843 201.796 178.804 200.884 179.306 199.815C179.815 198.749 179.829 197.619 179.342 196.684L155.429 150.752C154.472 148.909 151.857 148.304 149.518 149.381L145.424 151.268L170.288 205.279L176.663 202.344Z" fill="#646464"/>
<path d="M217.579 139.148C226.114 147.686 226.12 161.528 217.579 170.066C209.04 178.604 195.202 178.604 186.659 170.065C178.124 161.528 178.124 147.687 186.659 139.148C195.202 130.608 209.04 130.61 217.579 139.148Z" fill="#FF6400"/>
<path d="M217.579 139.148C209.04 130.61 195.202 130.609 186.659 139.148L217.579 170.066C226.12 161.527 226.114 147.686 217.579 139.148Z" fill="#FF7800"/>
<path d="M254.667 197.524C256.723 199.953 256.572 203.554 254.322 205.806L253.319 206.807C251.07 209.057 247.469 209.207 245.04 207.151L221.23 187.005L234.522 173.713L254.667 197.524Z" fill="#323232"/>
<path d="M232.548 148.725L196.219 185.054L214.539 203.375L250.869 167.046L232.548 148.725Z" fill="#E6E6E6"/>
<path d="M209.618 183.207L212.649 180.176L214.069 181.598L213.548 182.117L218.861 187.431L216.428 189.864L209.99 188.498L212.471 190.98L212.99 190.46L214.411 191.88L211.384 194.91L209.963 193.489L210.481 192.969L206.588 189.076L206.07 189.597L204.649 188.177L207.859 184.964L213.618 186.168L211.557 184.106L211.039 184.627L209.618 183.207Z" fill="#FF3C00"/>
<path d="M218.334 177.329L217.289 178.376L218.658 179.745L219.419 178.983L220.407 179.971L219.645 180.732L221.181 182.268L222.229 181.222L220.864 179.855L222.803 177.916L225.589 180.702L219.657 186.633L218.235 185.213L218.756 184.693L214.863 180.8L214.342 181.318L212.922 179.898L218.855 173.969L221.468 176.581L219.529 178.521L218.334 177.329Z" fill="#FF3C00"/>
<path d="M227.468 178.824L220.949 174.716L220.602 175.062L219.181 173.641L222.621 170.203L224.041 171.623L223.477 172.186L227.148 175.008L227.235 174.922L223.562 169.259L226.056 166.767L231.659 170.497L231.745 170.411L228.922 166.74L228.36 167.303L226.94 165.883L229.943 162.878L231.364 164.299L231.018 164.647L235.214 171.076L232.193 174.097L227.839 171.318L227.75 171.405L230.488 175.802L227.468 178.824Z" fill="#FF3C00"/>
<path d="M237.839 165.356C238.031 165.166 238.138 165.002 238.163 164.863C238.184 164.724 238.135 164.595 238.018 164.479C237.94 164.4 237.835 164.363 237.71 164.37C237.582 164.375 237.378 164.438 237.098 164.56C236.505 164.827 235.979 165.044 235.513 165.217C235.042 165.389 234.616 165.494 234.225 165.524C233.832 165.554 233.47 165.506 233.125 165.367C232.783 165.234 232.439 164.995 232.101 164.656C231.779 164.333 231.537 163.99 231.382 163.635C231.226 163.276 231.168 162.891 231.213 162.481C231.262 162.074 231.427 161.633 231.707 161.157C231.99 160.684 232.408 160.17 232.963 159.616C233.466 159.113 233.991 158.692 234.536 158.347C235.082 158.004 235.585 157.77 236.045 157.641L237.594 159.19L235.778 161.009C235.613 160.844 235.452 160.774 235.301 160.809C235.144 160.837 235 160.919 234.869 161.051C234.676 161.242 234.567 161.406 234.533 161.539C234.493 161.669 234.542 161.801 234.661 161.918C234.763 162.019 234.875 162.043 235.013 162C235.149 161.959 235.335 161.878 235.572 161.755C236.017 161.531 236.445 161.328 236.865 161.152C237.283 160.978 237.694 160.865 238.1 160.821C238.502 160.772 238.899 160.812 239.277 160.933C239.664 161.059 240.039 161.307 240.408 161.675C241.157 162.425 241.474 163.226 241.358 164.079C241.24 164.93 240.711 165.821 239.777 166.757C239.247 167.287 238.688 167.753 238.106 168.153C237.524 168.548 237.021 168.829 236.6 169L234.883 167.282L236.788 165.38C236.966 165.556 237.123 165.647 237.279 165.662C237.436 165.68 237.62 165.574 237.839 165.356Z" fill="#FF3C00"/>
<path d="M243.728 191.155H233.613V248.758H243.728V191.155Z" fill="#323232"/>
<path d="M104.034 189.742C95.26 198.517 81.036 198.517 72.258 189.742C63.487 180.968 63.491 166.744 72.265 157.972C81.036 149.2 95.257 149.196 104.034 157.971C112.805 166.744 112.805 180.969 104.034 189.742Z" fill="#505050"/>
<path d="M104.034 189.742C112.805 180.969 112.805 166.744 104.034 157.971L72.2581 189.742C81.0361 198.518 95.2601 198.518 104.034 189.742Z" fill="#5A5A5A"/>
<path d="M42.599 230.46C39.81 232.821 35.6761 232.648 33.0911 230.065L31.945 228.915C29.359 226.331 29.1891 222.198 31.5491 219.408L54.6751 192.075L69.933 207.336L42.599 230.46Z" fill="#323232"/>
<path d="M59.863 164.331L37.8411 186.353L75.6596 224.171L97.6815 202.149L59.863 164.331Z" fill="#F53200"/>
<path d="M78.7705 183.233L56.7517 205.259L75.6629 224.164L97.6818 202.139L78.7705 183.233Z" fill="#FF3C00"/>
<path d="M57.4951 211.202H47.3792V248.758H57.4951V211.202Z" fill="#323232"/>
</g>
<defs>
<clipPath id="clip0_25446_473">
<rect width="276" height="290" fill="white"/>
</clipPath>
</defs>
</svg>
