<svg width="500" height="500" viewBox="0 0 500 500" fill="none" xmlns="http://www.w3.org/2000/svg">
<path d="M303.957 460.359C378.146 460.359 438.287 455.869 438.287 450.33C438.287 444.791 378.146 440.301 303.957 440.301C229.769 440.301 169.627 444.791 169.627 450.33C169.627 455.869 229.769 460.359 303.957 460.359Z" fill="#263238" stroke="#263238" stroke-width="2.5" stroke-miterlimit="10" stroke-linecap="round" stroke-linejoin="round"/>
<path d="M208.238 443.646C282.427 443.646 342.568 439.156 342.568 433.617C342.568 428.078 282.427 423.588 208.238 423.588C134.05 423.588 73.9082 428.078 73.9082 433.617C73.9082 439.156 134.05 443.646 208.238 443.646Z" fill="#263238" stroke="#263238" stroke-width="2.5" stroke-miterlimit="10" stroke-linecap="round" stroke-linejoin="round"/>
<path d="M456.17 294.673H435.518C430.497 294.673 426.426 290.603 426.426 285.581V264.93C426.426 259.909 430.496 255.838 435.518 255.838H456.17C461.191 255.838 465.262 259.908 465.262 264.93V285.582C465.262 290.602 461.191 294.673 456.17 294.673Z" fill="white" stroke="white" stroke-width="2.5" stroke-miterlimit="10"/>
<path d="M456.17 294.673H435.518C430.497 294.673 426.426 290.603 426.426 285.581V264.93C426.426 259.909 430.496 255.838 435.518 255.838H456.17C461.191 255.838 465.262 259.908 465.262 264.93V285.582C465.262 290.602 461.191 294.673 456.17 294.673Z" fill="#FF4900"/>
<path d="M456.17 255.838H435.518C431.906 255.838 428.796 257.949 427.329 261.001C428.756 260.069 430.458 259.523 432.29 259.523H455.159C458.956 259.523 462.033 262.601 462.033 266.397V289.266C462.033 290.675 461.703 292.004 461.131 293.195C463.616 291.572 465.262 288.771 465.262 285.582V264.93C465.262 259.908 461.191 255.838 456.17 255.838Z" fill="white"/>
<path d="M456.17 294.673H435.518C430.497 294.673 426.426 290.603 426.426 285.581V264.93C426.426 259.909 430.496 255.838 435.518 255.838H456.17C461.191 255.838 465.262 259.908 465.262 264.93V285.582C465.262 290.602 461.191 294.673 456.17 294.673Z" stroke="#263238" stroke-width="2.5" stroke-miterlimit="10" stroke-linecap="round" stroke-linejoin="round"/>
<path d="M439.725 270.833H432.964V284.354H439.725V270.833Z" fill="#263238" stroke="#263238" stroke-width="2.5" stroke-miterlimit="10" stroke-linecap="round" stroke-linejoin="round"/>
<path d="M457.373 273.796C458.159 273.53 458.725 272.787 458.725 271.912C458.725 271.006 458.119 270.242 457.29 270.001C457.156 269.905 449.983 269.901 449.983 269.901L450.316 268.361C450.703 266.572 450.434 264.704 449.56 263.097C449.07 262.196 448.11 261.652 447.086 261.694C445.644 261.753 444.505 262.94 444.505 264.383V266.288L440.833 272.058H439.726L439.784 282.84L441.241 282.898L443.164 283.772L454.12 283.716C454.203 283.716 454.664 283.714 454.83 283.714C455.93 283.714 456.821 282.823 456.821 281.723C456.821 281.309 456.695 280.925 456.479 280.607C456.966 280.244 457.283 279.665 457.283 279.011C457.283 278.389 456.998 277.834 456.551 277.469C457.547 277.359 458.322 276.516 458.322 275.491C458.321 274.772 457.941 274.146 457.373 273.796Z" fill="white" stroke="#263238" stroke-width="2.5" stroke-miterlimit="10" stroke-linecap="round" stroke-linejoin="round"/>
<path d="M438.131 209.755C437.546 216.618 435.035 218.56 435.035 218.56" stroke="#263238" stroke-width="2.5" stroke-miterlimit="10" stroke-linecap="round" stroke-linejoin="round"/>
<path d="M430.969 213.91C428.895 220.478 422.028 228.208 422.028 228.208" stroke="#263238" stroke-width="2.5" stroke-miterlimit="10" stroke-linecap="round" stroke-linejoin="round"/>
<path d="M283.673 433.616H123.215C112.191 433.616 103.255 424.68 103.255 413.656V96.5569C103.255 85.5329 112.191 76.5969 123.215 76.5969H283.674C294.698 76.5969 303.634 85.5329 303.634 96.5569V413.656C303.633 424.68 294.697 433.616 283.673 433.616Z" fill="#5420A4"/>
<path d="M283.673 433.616H123.215C112.191 433.616 103.255 424.68 103.255 413.656V96.5569C103.255 85.5329 112.191 76.5969 123.215 76.5969H283.674C294.698 76.5969 303.634 85.5329 303.634 96.5569V413.656C303.633 424.68 294.697 433.616 283.673 433.616Z" fill="#5420A4" stroke="#263238" stroke-width="2.5" stroke-miterlimit="10" stroke-linecap="round" stroke-linejoin="round"/>
<path d="M285.754 87.595H237.06L235.782 92.378C234.64 96.651 230.77 99.624 226.346 99.624H180.542C176.119 99.624 172.248 96.651 171.106 92.378L169.828 87.595H121.134C115.703 87.595 111.3 91.998 111.3 97.429V413.57C111.3 419.001 115.703 423.404 121.134 423.404H285.753C291.184 423.404 295.587 419.001 295.587 413.57V97.429C295.588 91.998 291.185 87.595 285.754 87.595Z" fill="white" stroke="#263238" stroke-width="2.5" stroke-miterlimit="10" stroke-linecap="round" stroke-linejoin="round"/>
<path d="M111.3 390.35V413.57C111.3 419.001 115.703 423.404 121.134 423.404H285.753C291.184 423.404 295.587 419.001 295.587 413.57V390.35H111.3Z" fill="white" stroke="#263238" stroke-width="2.5" stroke-miterlimit="10" stroke-linecap="round" stroke-linejoin="round"/>
<path d="M295.588 145.319V97.429C295.588 91.998 291.185 87.595 285.754 87.595H237.06L235.782 92.378C234.641 96.651 230.769 99.624 226.347 99.624H180.543C176.12 99.624 172.249 96.651 171.108 92.378L169.83 87.595H121.136C115.705 87.595 111.302 91.998 111.302 97.429V145.319H295.588Z" fill="white" stroke="#263238" stroke-width="2.5" stroke-miterlimit="10" stroke-linecap="round" stroke-linejoin="round"/>
<path d="M256.547 116.457C261.135 116.457 265.724 116.457 270.312 116.457" stroke="#263238" stroke-width="2.5" stroke-miterlimit="10" stroke-linecap="round" stroke-linejoin="round"/>
<path d="M213.657 116.457C222.925 116.457 232.193 116.457 241.46 116.457" stroke="#263238" stroke-width="2.5" stroke-miterlimit="10" stroke-linecap="round" stroke-linejoin="round"/>
<path d="M402.486 367.946H367.868C359.451 367.946 352.628 361.123 352.628 352.706V318.088C352.628 309.671 359.451 302.848 367.868 302.848H402.486C410.903 302.848 417.726 309.671 417.726 318.088V352.706C417.726 361.122 410.903 367.946 402.486 367.946Z" fill="white" stroke="white" stroke-width="2.5" stroke-miterlimit="10"/>
<path d="M402.486 367.946H367.868C359.451 367.946 352.628 361.123 352.628 352.706V318.088C352.628 309.671 359.451 302.848 367.868 302.848H402.486C410.903 302.848 417.726 309.671 417.726 318.088V352.706C417.726 361.122 410.903 367.946 402.486 367.946Z" fill="#FF4900"/>
<path d="M402.486 302.847H367.868C362.679 302.847 358.103 305.445 355.351 309.406C355.81 309.345 356.275 309.303 356.75 309.303H400.678C406.524 309.303 411.263 314.042 411.263 319.888V363.816C411.263 364.296 411.22 364.766 411.158 365.229C415.124 362.477 417.726 357.898 417.726 352.705V318.087C417.726 309.671 410.903 302.847 402.486 302.847Z" fill="white"/>
<path d="M402.486 367.946H367.868C359.451 367.946 352.628 361.123 352.628 352.706V318.088C352.628 309.671 359.451 302.848 367.868 302.848H402.486C410.903 302.848 417.726 309.671 417.726 318.088V352.706C417.726 361.122 410.903 367.946 402.486 367.946Z" stroke="#263238" stroke-width="2.5" stroke-miterlimit="10" stroke-linecap="round" stroke-linejoin="round"/>
<path d="M395.206 354.255H375.149C370.272 354.255 366.319 350.302 366.319 345.425V325.368C366.319 320.491 370.272 316.538 375.149 316.538H395.206C400.083 316.538 404.036 320.491 404.036 325.368V345.425C404.035 350.302 400.082 354.255 395.206 354.255Z" stroke="#3B0DA4" stroke-width="2.5" stroke-miterlimit="10" stroke-linecap="round" stroke-linejoin="round"/>
<path d="M385.177 342.992C380.982 342.992 377.581 339.591 377.581 335.396C377.581 331.201 380.982 327.8 385.177 327.8C389.372 327.8 392.773 331.201 392.773 335.396C392.773 339.591 389.372 342.992 385.177 342.992Z" stroke="#3B0DA4" stroke-width="2.5" stroke-miterlimit="10" stroke-linecap="round" stroke-linejoin="round"/>
<path d="M398.33 324.447C398.33 325.581 397.411 326.5 396.277 326.5C395.143 326.5 394.224 325.581 394.224 324.447C394.224 323.313 395.143 322.394 396.277 322.394C397.411 322.394 398.33 323.313 398.33 324.447Z" fill="#263238" stroke="#3B0DA4"/>
<path d="M116.071 277.517H87.392C80.754 277.517 75.373 272.136 75.373 265.498V239.54C75.373 232.902 80.754 227.521 87.392 227.521H116.071C122.709 227.521 128.09 232.902 128.09 239.54V265.499C128.09 272.136 122.709 277.517 116.071 277.517Z" fill="white" stroke="white" stroke-width="2.5" stroke-miterlimit="10"/>
<path d="M116.071 277.517H87.392C80.754 277.517 75.373 272.136 75.373 265.498V239.54C75.373 232.902 80.754 227.521 87.392 227.521H116.071C122.709 227.521 128.09 232.902 128.09 239.54V265.499C128.09 272.136 122.709 277.517 116.071 277.517Z" fill="#FF4900"/>
<path d="M116.071 277.517H87.392C80.754 277.517 75.373 272.136 75.373 265.498V239.54C75.373 232.902 80.754 227.521 87.392 227.521H116.071C122.709 227.521 128.09 232.902 128.09 239.54V265.499C128.09 272.136 122.709 277.517 116.071 277.517Z" fill="#FF4900"/>
<path d="M116.071 227.521H87.3922C82.1202 227.521 77.6522 230.92 76.0322 235.643C77.9222 234.405 80.1772 233.68 82.6052 233.68H114.994C119.583 233.68 123.303 237.4 123.303 241.989V271.658C123.303 273.024 123.064 274.331 122.644 275.555C125.921 273.408 128.09 269.71 128.09 265.499V239.54C128.09 232.902 122.709 227.521 116.071 227.521Z" fill="white"/>
<path d="M116.071 277.517H87.392C80.754 277.517 75.373 272.136 75.373 265.498V239.54C75.373 232.902 80.754 227.521 87.392 227.521H116.071C122.709 227.521 128.09 232.902 128.09 239.54V265.499C128.09 272.136 122.709 277.517 116.071 277.517Z" stroke="#263238" stroke-width="2.5" stroke-miterlimit="10" stroke-linecap="round" stroke-linejoin="round"/>
<path d="M94.7361 250.505C94.7911 243.861 98.7551 239.299 105.801 239.299C110.755 239.299 113.838 241.336 113.838 241.336L110.425 246.873C110.425 246.873 109.104 246.253 107.507 246.253C105.029 246.253 104.479 247.582 104.479 250.726V255.333H110.975V261.313H104.479V278.056H94.7351V261.313H90.6611V255.333H94.7351L94.7361 250.505Z" fill="#3B0DA4"/>
<path d="M125.514 395.889H66.6801C62.5511 395.889 59.2041 392.542 59.2041 388.413V355.89C59.2041 351.761 62.5511 348.414 66.6801 348.414H125.514C129.643 348.414 132.99 351.761 132.99 355.89V388.412C132.99 392.541 129.643 395.889 125.514 395.889Z" fill="white"/>
<path d="M125.514 395.889H66.6801C62.5511 395.889 59.2041 392.542 59.2041 388.413V355.89C59.2041 351.761 62.5511 348.414 66.6801 348.414H125.514C129.643 348.414 132.99 351.761 132.99 355.89V388.412C132.99 392.541 129.643 395.889 125.514 395.889Z" stroke="#263238" stroke-width="2.5" stroke-miterlimit="10" stroke-linecap="round" stroke-linejoin="round"/>
<path d="M132.99 355.89C132.99 351.761 129.643 348.414 125.514 348.414H66.6801C62.5511 348.414 59.2041 351.761 59.2041 355.89L89.2751 372.895C94.4491 375.821 100.805 375.703 105.867 372.587L132.99 355.89Z" fill="#FF4900"/>
<path d="M61.9231 353.201H120.757C123.369 353.201 125.666 354.543 127.003 356.574L132.99 355.89C132.99 351.761 129.643 348.414 125.514 348.414H66.6801C62.5511 348.414 59.2041 348.759 59.2041 352.888L60.1481 353.422C60.7181 353.283 61.3101 353.201 61.9231 353.201Z" fill="white"/>
<path d="M132.99 355.89C132.99 351.761 129.643 348.414 125.514 348.414H66.6801C62.5511 348.414 59.2041 351.761 59.2041 355.89L89.2751 372.895C94.4491 375.821 100.805 375.703 105.867 372.587L132.99 355.89Z" stroke="#263238" stroke-width="2.5" stroke-miterlimit="10" stroke-linecap="round" stroke-linejoin="round"/>
<path d="M87.9592 372.151L61.0112 393.278" stroke="#263238" stroke-width="2.5" stroke-miterlimit="10" stroke-linecap="round" stroke-linejoin="round"/>
<path d="M105.867 372.587L130.832 393.278" stroke="#263238" stroke-width="2.5" stroke-miterlimit="10" stroke-linecap="round" stroke-linejoin="round"/>
<path d="M33.5991 366.305H55.2651" stroke="#263238" stroke-width="2.5" stroke-miterlimit="10" stroke-linecap="round" stroke-linejoin="round"/>
<path d="M43.9292 375.01H54.2652" stroke="#263238" stroke-width="2.5" stroke-miterlimit="10" stroke-linecap="round" stroke-linejoin="round"/>
<path d="M108.109 84.467H54.5049C50.7429 84.467 47.6929 87.517 47.6929 91.279V120.911C47.6929 124.673 50.7429 127.723 54.5049 127.723H59.9269L81.3079 139.611L73.7899 127.723H108.11C111.872 127.723 114.922 124.673 114.922 120.911V91.279C114.921 87.517 111.871 84.467 108.109 84.467Z" fill="#FF4900"/>
<path d="M108.109 84.467H54.5049C51.2209 84.467 48.4799 86.792 47.8369 89.885C48.4599 89.697 49.1209 89.593 49.8049 89.593H103.41C107.172 89.593 110.222 92.643 110.222 96.405V126.037C110.222 126.515 110.172 126.98 110.078 127.43C112.88 126.585 114.921 123.987 114.921 120.91V91.279C114.921 87.517 111.871 84.467 108.109 84.467Z" fill="white"/>
<path d="M108.109 84.467H54.5049C50.7429 84.467 47.6929 87.517 47.6929 91.279V120.911C47.6929 124.673 50.7429 127.723 54.5049 127.723H59.9269L81.3079 139.611L73.7899 127.723H108.11C111.872 127.723 114.922 124.673 114.922 120.911V91.279C114.921 87.517 111.871 84.467 108.109 84.467Z" stroke="#263238" stroke-width="2.5" stroke-miterlimit="10" stroke-linecap="round" stroke-linejoin="round"/>
<path d="M98.3999 55.71H152.005C155.767 55.71 158.817 58.76 158.817 62.522V92.154C158.817 95.916 155.767 98.966 152.005 98.966H146.583L125.202 110.854L132.72 98.966H98.3999C94.6379 98.966 91.5879 95.916 91.5879 92.154V62.522C91.5879 58.76 94.6379 55.71 98.3999 55.71Z" fill="white" stroke="#263238" stroke-width="2.5" stroke-miterlimit="10" stroke-linecap="round" stroke-linejoin="round"/>
<path d="M141.204 81.91C143.394 81.91 145.17 80.1344 145.17 77.944C145.17 75.7537 143.394 73.978 141.204 73.978C139.013 73.978 137.238 75.7537 137.238 77.944C137.238 80.1344 139.013 81.91 141.204 81.91Z" fill="#263238"/>
<path d="M125.443 81.91C127.633 81.91 129.409 80.1344 129.409 77.944C129.409 75.7537 127.633 73.978 125.443 73.978C123.253 73.978 121.477 75.7537 121.477 77.944C121.477 80.1344 123.253 81.91 125.443 81.91Z" fill="#263238"/>
<path d="M113.648 77.944C113.648 80.134 111.872 81.91 109.682 81.91C107.492 81.91 105.716 80.134 105.716 77.944C105.716 75.754 107.492 73.978 109.682 73.978C111.872 73.978 113.648 75.753 113.648 77.944Z" fill="#263238"/>
<path d="M101.034 106.562C101.034 108.752 99.2581 110.528 97.0681 110.528C94.8781 110.528 93.1021 108.752 93.1021 106.562C93.1021 104.372 94.8781 102.596 97.0681 102.596C99.2581 102.596 101.034 104.372 101.034 106.562Z" fill="#263238"/>
<path d="M85.2733 106.562C85.2733 108.752 83.4973 110.528 81.3073 110.528C79.1173 110.528 77.3413 108.752 77.3413 106.562C77.3413 104.372 79.1173 102.596 81.3073 102.596C83.4973 102.596 85.2733 104.372 85.2733 106.562Z" fill="#263238"/>
<path d="M69.5121 106.562C69.5121 108.752 67.7361 110.528 65.5461 110.528C63.3561 110.528 61.5801 108.752 61.5801 106.562C61.5801 104.372 63.3561 102.596 65.5461 102.596C67.7361 102.596 69.5121 104.372 69.5121 106.562Z" fill="#263238"/>
<path d="M376.507 195.773L367.453 193.851L363.682 211.622L372.736 213.544L376.507 195.773Z" fill="white" stroke="#263238" stroke-width="2.5" stroke-miterlimit="10" stroke-linecap="round" stroke-linejoin="round"/>
<path d="M392.715 155.344C389.805 154.576 383.97 153.165 378.918 152.753C371.87 152.177 360.39 148.544 359.392 141.652C359.072 139.443 357.464 138.049 355.538 136.675C354.011 135.585 352.285 134.507 350.842 133.044C348.429 130.597 347.156 125.541 347.156 125.541L332.674 139.299C325.912 145.723 316.598 148.791 307.363 147.488C295.216 145.773 276.94 145.467 261.096 154.531C234.577 169.701 244.064 182.111 221.703 185.748C199.342 189.385 202.786 192.022 191.373 197.12C179.96 202.219 183.852 200.843 183.852 200.843C183.852 200.843 195.806 200.178 199.997 220.101C200.309 221.583 200.539 223.055 200.718 224.518C202.949 242.723 196.245 259.302 213.211 270.275C231.54 282.13 236.393 276.567 249.736 287.801C263.079 299.036 279.538 317.384 285.168 319.689H285.169C287.934 320.819 300.596 309.844 302.043 298.277C303.543 286.292 302.033 273.468 316.83 260.914C345.91 236.243 352.644 214.316 356.104 199.607C356.688 197.125 376.326 179.196 379.953 174.515C383.581 169.832 393.865 155.647 392.715 155.344Z" fill="white"/>
<path d="M354.871 137.588C356.214 138.95 357.798 139.977 359.244 140.993C358.727 139.158 357.264 137.906 355.539 136.675C354.728 136.096 353.862 135.516 353.011 134.884C353.527 135.882 354.146 136.853 354.871 137.588Z" fill="white"/>
<path d="M398.082 159.343C395.172 158.575 383.97 153.165 378.918 152.753C371.87 152.177 360.39 148.544 359.392 141.652C359.072 139.443 357.464 138.049 355.538 136.675C354.011 135.585 352.285 134.507 350.842 133.044C348.429 130.597 347.156 125.541 347.156 125.541L332.674 139.299C325.912 145.723 316.598 148.791 307.363 147.488C295.216 145.773 276.94 145.467 261.096 154.531C234.577 169.701 244.064 182.111 221.703 185.748C199.342 189.385 202.786 192.022 191.373 197.12C179.96 202.219 183.852 200.843 183.852 200.843C183.852 200.843 195.806 200.178 199.997 220.101C200.309 221.583 200.539 223.055 200.718 224.518C202.949 242.723 196.245 259.302 213.211 270.275C231.54 282.13 236.393 276.567 249.736 287.801C263.079 299.036 279.538 317.384 285.168 319.689H285.169C287.668 320.711 301.149 308.095 302.043 298.277C303.163 285.974 300.658 274.635 316.83 260.914C345.91 236.243 352.644 214.316 356.104 199.607C356.688 197.125 376.326 179.196 379.953 174.515C383.581 169.832 399.232 159.646 398.082 159.343Z" stroke="#263238" stroke-width="2.5" stroke-miterlimit="10" stroke-linecap="round" stroke-linejoin="round"/>
<path d="M316.921 141.905C316.96 141.802 316.993 141.691 317.033 141.59C317.101 141.398 317.183 141.216 317.263 141.034C317.348 140.836 317.437 140.642 317.527 140.448C317.634 140.218 317.739 139.987 317.852 139.762C317.904 139.655 317.964 139.556 318.017 139.451C318.082 139.328 318.145 139.204 318.213 139.083C318.446 138.659 318.69 138.247 318.954 137.851C319.013 137.761 319.074 137.673 319.134 137.585C319.298 137.34 319.461 137.099 319.633 136.863C319.732 136.738 319.831 136.616 319.93 136.492C319.987 136.42 320.045 136.348 320.103 136.277C320.162 136.204 320.22 136.129 320.279 136.057C320.286 136.036 320.303 136.013 320.322 136.001C320.34 135.988 320.358 135.966 320.365 135.945C320.593 135.692 320.82 135.438 321.049 135.195C321.408 134.821 321.781 134.476 322.165 134.148C322.242 134.082 322.319 134.016 322.397 133.952C322.475 133.889 322.548 133.818 322.628 133.757C322.882 133.55 323.128 133.355 323.396 133.177C323.423 133.153 323.443 133.15 323.48 133.125C323.485 133.122 323.489 133.119 323.494 133.116C323.559 133.071 323.627 133.033 323.693 132.989C323.882 132.861 324.07 132.731 324.269 132.622C324.306 132.597 324.343 132.572 324.38 132.546C324.517 132.465 324.659 132.395 324.798 132.319C324.838 132.297 324.878 132.275 324.918 132.254C325.327 132.037 325.741 131.835 326.166 131.664C326.482 131.54 326.809 131.424 327.129 131.33C327.272 131.283 327.423 131.251 327.571 131.21C327.656 131.187 327.739 131.163 327.824 131.141C327.921 131.117 328.014 131.085 328.112 131.063C328.435 130.988 328.751 130.935 329.086 130.879C329.097 130.887 329.097 130.887 329.106 130.876L329.117 130.884C329.145 130.878 329.173 130.879 329.201 130.874C329.226 130.871 329.251 130.868 329.276 130.865C329.38 130.852 329.485 130.836 329.584 130.829C329.982 130.785 330.382 130.76 330.786 130.765C332.166 130.747 333.49 130.978 334.731 131.413C334.803 131.423 334.877 131.443 334.94 131.465C335.744 131.751 336.518 132.122 337.262 132.559C337.318 132.592 337.371 132.629 337.427 132.662C337.728 132.845 338.025 133.036 338.314 133.242C338.411 133.311 338.505 133.384 338.6 133.456C338.841 133.636 339.079 133.822 339.312 134.018C339.432 134.119 339.55 134.225 339.668 134.33C339.863 134.505 340.055 134.684 340.244 134.869C340.386 135.008 340.525 135.151 340.662 135.297C340.81 135.453 340.954 135.613 341.097 135.777C341.263 135.966 341.427 136.158 341.586 136.356C341.678 136.471 341.767 136.588 341.856 136.705C342.055 136.965 342.251 137.229 342.439 137.503C342.445 137.512 342.451 137.519 342.457 137.528C342.473 137.551 342.487 137.578 342.504 137.601C342.737 137.945 342.963 138.297 343.177 138.661C343.19 138.683 343.205 138.703 343.218 138.725C343.243 138.762 343.258 138.8 343.295 138.846C343.308 138.864 343.309 138.874 343.321 138.893C343.376 138.99 343.421 139.097 343.475 139.195C343.668 139.548 343.852 139.909 344.027 140.278C344.103 140.439 344.181 140.598 344.254 140.762C345.245 142.991 345.899 145.489 346.143 148.152C346.15 148.226 346.159 148.298 346.165 148.372C346.22 149.033 346.257 149.7 346.259 150.378C346.268 153.668 345.619 156.754 344.498 159.475C343.524 161.844 342.194 163.939 340.578 165.611C338.803 167.452 336.708 168.813 334.405 169.507C334.12 169.593 333.826 169.668 333.533 169.734C333.056 169.85 332.562 169.936 332.069 169.981C331.676 170.021 331.275 170.051 330.863 170.06C323.803 170.076 317.859 164.03 316.011 155.777C315.946 155.463 315.862 155.159 315.808 154.836C315.723 154.371 315.67 153.891 315.61 153.415C315.487 152.441 315.398 151.455 315.394 150.437C315.392 150.276 315.399 150.103 315.397 149.942C315.401 149.679 315.405 149.416 315.419 149.152C315.498 147.46 315.754 145.835 316.156 144.288C316.172 144.226 316.191 144.165 316.207 144.103C316.286 143.809 316.36 143.514 316.45 143.226C316.491 143.095 316.543 142.973 316.586 142.844C316.691 142.524 316.804 142.214 316.921 141.905Z" fill="#FFAC8B"/>
<path d="M322.586 155.438C322.522 155.124 322.437 154.82 322.383 154.497C322.298 154.032 322.245 153.552 322.185 153.076C322.062 152.102 321.973 151.115 321.969 150.098C321.967 149.937 321.974 149.764 321.972 149.603C321.976 149.34 321.98 149.077 321.994 148.813C322.073 147.121 322.329 145.496 322.731 143.949C322.747 143.887 322.766 143.826 322.782 143.764C322.861 143.471 322.935 143.175 323.025 142.887C323.066 142.756 323.118 142.634 323.161 142.504C323.265 142.186 323.378 141.876 323.495 141.566C323.534 141.463 323.567 141.352 323.607 141.252C323.675 141.06 323.757 140.878 323.837 140.695C323.922 140.497 324.011 140.303 324.101 140.109C324.208 139.879 324.313 139.648 324.426 139.423C324.478 139.316 324.538 139.217 324.591 139.112C324.656 138.989 324.719 138.865 324.787 138.744C325.02 138.32 325.264 137.908 325.528 137.512C325.587 137.422 325.648 137.334 325.708 137.245C325.872 137 326.035 136.759 326.207 136.523C326.306 136.398 326.405 136.276 326.504 136.152C326.561 136.08 326.619 136.008 326.677 135.937C326.736 135.864 326.794 135.789 326.853 135.717C326.86 135.696 326.877 135.673 326.896 135.661C326.915 135.648 326.932 135.626 326.939 135.605C327.167 135.352 327.394 135.098 327.623 134.855C327.982 134.481 328.355 134.136 328.739 133.808C328.816 133.742 328.893 133.676 328.971 133.612C329.049 133.548 329.123 133.478 329.202 133.417C329.456 133.21 329.702 133.015 329.97 132.837C329.997 132.813 330.017 132.81 330.054 132.785C330.059 132.782 330.063 132.779 330.068 132.776C330.133 132.731 330.201 132.693 330.267 132.649C330.456 132.521 330.644 132.391 330.843 132.282C330.88 132.257 330.917 132.231 330.954 132.206C331.092 132.125 331.233 132.055 331.373 131.979C331.413 131.957 331.453 131.935 331.493 131.914C331.902 131.697 332.316 131.495 332.741 131.324C332.987 131.227 333.241 131.144 333.492 131.064C332.62 130.863 331.718 130.753 330.786 130.765C330.381 130.76 329.981 130.785 329.583 130.829C329.484 130.836 329.379 130.851 329.275 130.865C329.25 130.868 329.225 130.87 329.2 130.874C329.172 130.879 329.145 130.878 329.116 130.884L329.105 130.876C329.097 130.887 329.097 130.887 329.085 130.879C328.75 130.935 328.434 130.989 328.111 131.063C328.014 131.085 327.92 131.117 327.823 131.141C327.738 131.162 327.654 131.187 327.57 131.21C327.423 131.25 327.271 131.283 327.128 131.33C326.808 131.424 326.48 131.54 326.164 131.664C325.739 131.835 325.325 132.037 324.916 132.254C324.876 132.275 324.836 132.297 324.796 132.319C324.657 132.395 324.515 132.464 324.378 132.546C324.341 132.571 324.304 132.597 324.267 132.622C324.068 132.731 323.88 132.861 323.691 132.989C323.625 133.033 323.557 133.071 323.492 133.116C323.487 133.119 323.483 133.122 323.478 133.125C323.441 133.15 323.421 133.153 323.394 133.177C323.126 133.355 322.88 133.55 322.626 133.757C322.547 133.818 322.473 133.889 322.395 133.952C322.317 134.017 322.24 134.082 322.163 134.148C321.78 134.477 321.407 134.821 321.047 135.195C320.818 135.438 320.591 135.692 320.363 135.945C320.356 135.966 320.339 135.989 320.32 136.001C320.302 136.014 320.285 136.036 320.277 136.057C320.218 136.128 320.16 136.204 320.101 136.277C320.043 136.348 319.985 136.42 319.928 136.492C319.829 136.616 319.729 136.738 319.631 136.863C319.459 137.099 319.295 137.34 319.132 137.585C319.072 137.674 319.011 137.761 318.952 137.851C318.688 138.246 318.444 138.659 318.211 139.083C318.144 139.204 318.08 139.328 318.015 139.451C317.961 139.556 317.901 139.655 317.85 139.762C317.737 139.987 317.632 140.218 317.525 140.449C317.435 140.643 317.345 140.836 317.261 141.035C317.182 141.218 317.1 141.4 317.031 141.591C316.99 141.692 316.958 141.803 316.919 141.906C316.802 142.215 316.689 142.526 316.585 142.844C316.542 142.974 316.49 143.096 316.449 143.226C316.359 143.513 316.285 143.809 316.206 144.103C316.189 144.165 316.171 144.226 316.155 144.288C315.753 145.835 315.497 147.46 315.418 149.152C315.404 149.416 315.4 149.679 315.396 149.942C315.398 150.103 315.391 150.276 315.393 150.437C315.397 151.454 315.486 152.441 315.609 153.415C315.669 153.891 315.721 154.371 315.807 154.836C315.861 155.159 315.946 155.464 316.01 155.777C317.858 164.03 323.802 170.076 330.862 170.06C331.273 170.051 331.675 170.021 332.067 169.981C332.56 169.936 333.055 169.85 333.531 169.734C333.825 169.669 334.119 169.593 334.404 169.507C334.501 169.478 334.596 169.44 334.692 169.409C328.874 168.085 324.189 162.595 322.586 155.438Z" fill="white"/>
<path d="M316.921 141.905C316.96 141.802 316.993 141.691 317.033 141.59C317.101 141.398 317.183 141.216 317.263 141.034C317.348 140.836 317.437 140.642 317.527 140.448C317.634 140.218 317.739 139.987 317.852 139.762C317.904 139.655 317.964 139.556 318.017 139.451C318.082 139.328 318.145 139.204 318.213 139.083C318.446 138.659 318.69 138.247 318.954 137.851C319.013 137.761 319.074 137.673 319.134 137.585C319.298 137.34 319.461 137.099 319.633 136.863C319.732 136.738 319.831 136.616 319.93 136.492C319.987 136.42 320.045 136.348 320.103 136.277C320.162 136.204 320.22 136.129 320.279 136.057C320.286 136.036 320.303 136.013 320.322 136.001C320.34 135.988 320.358 135.966 320.365 135.945C320.593 135.692 320.82 135.438 321.049 135.195C321.408 134.821 321.781 134.476 322.165 134.148C322.242 134.082 322.319 134.016 322.397 133.952C322.475 133.889 322.548 133.818 322.628 133.757C322.882 133.55 323.128 133.355 323.396 133.177C323.423 133.153 323.443 133.15 323.48 133.125C323.485 133.122 323.489 133.119 323.494 133.116C323.559 133.071 323.627 133.033 323.693 132.989C323.882 132.861 324.07 132.731 324.269 132.622C324.306 132.597 324.343 132.572 324.38 132.546C324.517 132.465 324.659 132.395 324.798 132.319C324.838 132.297 324.878 132.275 324.918 132.254C325.327 132.037 325.741 131.835 326.166 131.664C326.482 131.54 326.809 131.424 327.129 131.33C327.272 131.283 327.423 131.251 327.571 131.21C327.656 131.187 327.739 131.163 327.824 131.141C327.921 131.117 328.014 131.085 328.112 131.063C328.435 130.988 328.751 130.935 329.086 130.879C329.097 130.887 329.097 130.887 329.106 130.876L329.117 130.884C329.145 130.878 329.173 130.879 329.201 130.874C329.226 130.871 329.251 130.868 329.276 130.865C329.38 130.852 329.485 130.836 329.584 130.829C329.982 130.785 330.382 130.76 330.786 130.765C332.166 130.747 333.49 130.978 334.731 131.413C334.803 131.423 334.877 131.443 334.94 131.465C335.744 131.751 336.518 132.122 337.262 132.559C337.318 132.592 337.371 132.629 337.427 132.662C337.728 132.845 338.025 133.036 338.314 133.242C338.411 133.311 338.505 133.384 338.6 133.456C338.841 133.636 339.079 133.822 339.312 134.018C339.432 134.119 339.55 134.225 339.668 134.33C339.863 134.505 340.055 134.684 340.244 134.869C340.386 135.008 340.525 135.151 340.662 135.297C340.81 135.453 340.954 135.613 341.097 135.777C341.263 135.966 341.427 136.158 341.586 136.356C341.678 136.471 341.767 136.588 341.856 136.705C342.055 136.965 342.251 137.229 342.439 137.503C342.445 137.512 342.451 137.519 342.457 137.528C342.473 137.551 342.487 137.578 342.504 137.601C342.737 137.945 342.963 138.297 343.177 138.661C343.19 138.683 343.205 138.703 343.218 138.725C343.243 138.762 343.258 138.8 343.295 138.846C343.308 138.864 343.309 138.874 343.321 138.893C343.376 138.99 343.421 139.097 343.475 139.195C343.668 139.548 343.852 139.909 344.027 140.278C344.103 140.439 344.181 140.598 344.254 140.762C345.245 142.991 345.899 145.489 346.143 148.152C346.15 148.226 346.159 148.298 346.165 148.372C346.22 149.033 346.257 149.7 346.259 150.378C346.268 153.668 345.619 156.754 344.498 159.475C343.524 161.844 342.194 163.939 340.578 165.611C338.803 167.452 336.708 168.813 334.405 169.507C334.12 169.593 333.826 169.668 333.533 169.734C333.056 169.85 332.562 169.936 332.069 169.981C331.676 170.021 331.275 170.051 330.863 170.06C323.803 170.076 317.859 164.03 316.011 155.777C315.946 155.463 315.862 155.159 315.808 154.836C315.723 154.371 315.67 153.891 315.61 153.415C315.487 152.441 315.398 151.455 315.394 150.437C315.392 150.276 315.399 150.103 315.397 149.942C315.401 149.679 315.405 149.416 315.419 149.152C315.498 147.46 315.754 145.835 316.156 144.288C316.172 144.226 316.191 144.165 316.207 144.103C316.286 143.809 316.36 143.514 316.45 143.226C316.491 143.095 316.543 142.973 316.586 142.844C316.691 142.524 316.804 142.214 316.921 141.905Z" stroke="#263238" stroke-width="2.5" stroke-miterlimit="10" stroke-linecap="round" stroke-linejoin="round"/>
<path d="M315.807 154.839C315.618 156.056 315.495 157.316 315.453 158.609C315.448 158.758 315.443 158.917 315.438 159.066C315.247 169.174 319.873 177.224 325.761 177.045C329.24 176.94 332.373 173.981 334.404 169.508C333.265 169.852 332.084 170.054 330.862 170.056C323.535 170.073 317.395 163.567 315.807 154.839Z" fill="#263238"/>
<path d="M291.191 94.1461C301.125 90.0281 312.816 94.5131 317.482 104.202C319.236 107.845 319.814 111.746 319.369 115.481C318.806 120.205 320.805 124.771 324.33 127.966C324.514 128.133 324.701 128.392 324.975 128.632C326.779 130.214 328.53 130.978 330.665 130.773C330.717 130.768 330.758 130.766 330.787 130.766C332.167 130.748 333.491 130.979 334.732 131.414C334.804 131.424 334.878 131.444 334.941 131.466C337.912 132.521 340.508 134.657 342.457 137.528C342.721 137.906 342.979 138.314 343.217 138.726C343.242 138.763 343.258 138.801 343.294 138.847C343.307 138.866 343.308 138.875 343.32 138.894C340.989 144.252 334.431 148.677 326.228 149.805C322.364 150.337 318.642 150.061 315.418 149.152C315.421 149.093 315.428 149.035 315.432 148.976C311.208 148.703 307.249 146.231 305.291 142.141L305.219 141.99C303.046 137.406 298.86 134.196 293.944 132.945C288.267 131.501 283.249 127.648 280.521 121.949C275.472 111.399 280.244 98.6841 291.191 94.1461Z" fill="#263238"/>
<path d="M309.773 81.421C307.847 81.591 307.247 84.274 308.925 85.234C313.034 87.586 319.473 91.76 321.646 95.889C324.93 102.131 331.953 99.515 330.672 94.605C329.394 89.706 320.937 84.301 314.643 82.12C312.715 81.452 311.094 81.305 309.773 81.421Z" fill="#263238"/>
<path d="M325.883 106.668C326.523 107.733 327.846 108.055 328.839 107.387C329.832 106.719 330.118 105.315 329.479 104.25C328.839 103.185 327.516 102.863 326.523 103.531C325.53 104.198 325.243 105.603 325.883 106.668Z" fill="#263238"/>
<path d="M360.786 128.262C360.786 128.262 348.488 121.163 347.61 123.632C345.331 130.039 354.594 136.014 354.594 136.014L360.786 128.262Z" fill="#263238"/>
<path d="M200.436 226.233C200.436 226.233 200.677 219.621 198.38 213.258C195.784 206.066 188.848 199.215 182.433 200.046C171.842 205.599 189.462 240.592 189.462 240.592L200.436 226.233Z" fill="#263238"/>
<path d="M239.807 174.513C236.564 178.76 225.391 195.576 214.073 193.005" stroke="#263238" stroke-width="2.5" stroke-miterlimit="10" stroke-linecap="round" stroke-linejoin="round"/>
<path d="M335.834 175.268C334.814 179.76 330.776 182.665 326.805 181.763" stroke="#263238" stroke-width="2.5" stroke-miterlimit="10" stroke-linecap="round" stroke-linejoin="round"/>
<path d="M421.938 59.6941C423.339 58.2591 424.758 57.4491 426.537 56.4881C435.537 51.6281 434.037 46.6281 426.537 47.6281C423.187 48.0751 418.49 48.7021 414.318 49.2591C408.484 50.0381 403.567 53.9881 401.545 59.5161C400.99 61.0321 400.401 62.6301 399.81 64.2161L376.537 109.128L355.54 136.674C357.465 138.048 359.074 139.442 359.394 141.651C360.392 148.543 371.872 152.176 378.92 152.752C383.972 153.164 389.807 154.575 392.717 155.343L398.205 149.908L413.538 130.759L435.038 79.0171L428.678 79.5021L433.538 58.4621L421.938 59.6941Z" fill="#FFAC8B"/>
<path d="M434.944 79.0251L434.832 79.5081L435.036 79.0181L434.944 79.0251Z" fill="white"/>
<path d="M431.116 63.318C429.338 64.278 427.919 65.089 426.517 66.524L431.803 65.963L432.615 62.447C432.152 62.737 431.654 63.028 431.116 63.318Z" fill="white"/>
<path d="M360.119 143.504L381.116 111.956L402.742 70.793C403.333 69.207 403.922 67.609 404.477 66.093C406.499 60.565 410.735 54.4 416.569 53.621C419.518 53.227 422.742 52.423 425.369 51.938C426.895 51.656 429.319 51.456 430.141 50.14C431.112 48.586 430.806 47.06 426.535 47.629C423.185 48.076 418.488 48.703 414.316 49.26C408.482 50.039 403.565 53.989 401.543 59.517C400.988 61.033 400.399 62.631 399.808 64.217L376.535 109.129L355.538 136.675C357.463 138.049 359.072 139.443 359.392 141.652C359.75 144.122 361.458 146.171 363.822 147.814C363.302 145.983 361.841 144.733 360.119 143.504Z" fill="white"/>
<path d="M421.938 59.6941C423.339 58.2591 424.758 57.4491 426.537 56.4881C435.537 51.6281 434.037 46.6281 426.537 47.6281C423.187 48.0751 418.49 48.7021 414.318 49.2591C408.484 50.0381 403.567 53.9881 401.545 59.5161C400.99 61.0321 400.401 62.6301 399.81 64.2161L376.537 109.128L355.54 136.674C357.465 138.048 359.074 139.442 359.394 141.651C360.392 148.543 371.872 152.176 378.92 152.752C383.972 153.164 390.084 156.636 392.994 157.404C392.994 157.404 407.673 140.174 413.538 130.759C419.403 121.345 435.038 79.0171 435.038 79.0171L428.678 79.5021L433.538 58.4621L421.938 59.6941Z" stroke="#263238" stroke-width="2.5" stroke-miterlimit="10" stroke-linecap="round" stroke-linejoin="round"/>
<path d="M413.491 47.3901L427.969 39.2861C428.097 39.1701 428.264 39.1251 428.424 39.1631L468.572 43.6301C469.201 43.7781 469.133 44.8201 468.492 44.8631L413.866 48.5001C413.331 48.5351 413.072 47.7691 413.491 47.3901Z" fill="#5420A4" stroke="#263238" stroke-width="2.5" stroke-miterlimit="10" stroke-linecap="round" stroke-linejoin="round"/>
<path d="M435.036 39.1491L449.416 33.6211L468.573 43.6291L435.036 39.1491Z" fill="#5420A4" stroke="#263238" stroke-width="2.5" stroke-miterlimit="10" stroke-linecap="round" stroke-linejoin="round"/>
<path d="M421.938 59.6941C421.931 64.3351 417.87 67.6631 413.933 69.3161" stroke="#263238" stroke-width="2.5" stroke-miterlimit="10" stroke-linecap="round" stroke-linejoin="round"/>
<path d="M466.34 45.0061C465.703 45.9541 433.537 58.4631 433.537 58.4631L421.938 59.6951C421.938 59.6951 430.429 54.5531 431.84 52.3511C433.252 50.1491 432.203 47.5011 432.203 47.5011L466.34 45.0061Z" fill="#5420A4" stroke="#263238" stroke-width="2.5" stroke-miterlimit="10" stroke-linecap="round" stroke-linejoin="round"/>
<path d="M421.036 48.501C421.036 50.629 424.912 53.621 429.703 53.621L421.036 48.501Z" fill="white"/>
<path d="M421.036 48.501C421.036 50.629 424.912 53.621 429.703 53.621" stroke="#263238" stroke-width="2.5" stroke-miterlimit="10" stroke-linecap="round" stroke-linejoin="round"/>
<path d="M444.385 62.2222C447.976 59.1862 446.306 53.3042 441.649 52.6552C439.279 52.3242 436.671 52.3892 434.358 53.4262C428.093 56.2342 421.828 60.3392 424.853 63.7952C427.877 67.2512 439.163 65.0942 440.191 64.6962C441.88 64.0422 443.26 63.1732 444.385 62.2222Z" fill="#FFAC8B" stroke="#263238" stroke-width="2.5" stroke-miterlimit="10" stroke-linecap="round" stroke-linejoin="round"/>
<path d="M444.385 74.4412C447.976 71.4052 446.306 65.5232 441.649 64.8742C439.279 64.5432 436.671 64.6082 434.358 65.6452C428.093 68.4532 421.828 72.5582 424.853 76.0142C427.877 79.4712 439.163 77.3132 440.191 76.9152C441.88 76.2612 443.26 75.3922 444.385 74.4412Z" fill="#FFAC8B" stroke="#263238" stroke-width="2.5" stroke-miterlimit="10" stroke-linecap="round" stroke-linejoin="round"/>
<path d="M439.672 87.347C443.398 86.432 444.314 81.527 441.146 79.361C439.534 78.259 437.605 77.36 435.537 77.278C429.939 77.056 423.87 77.781 424.825 81.405C425.78 85.029 434.811 87.5501 435.708 87.6321C437.18 87.7681 438.504 87.634 439.672 87.347Z" fill="#FFAC8B" stroke="#263238" stroke-width="2.5" stroke-miterlimit="10" stroke-linecap="round" stroke-linejoin="round"/>
<path d="M269.748 443.341L272.343 443.896H312.119L306.044 433.644L303.955 419.823C297.749 420.146 289.517 423.354 283.146 426.977C274.942 431.644 273.769 431.644 263.221 429.644C262.741 429.553 262.281 429.496 261.82 429.437V433.537C261.821 438.266 265.125 442.351 269.748 443.341Z" fill="#FFAC8B" stroke="#263238" stroke-width="2.5" stroke-miterlimit="10" stroke-linecap="round" stroke-linejoin="round"/>
<path d="M306.046 433.644C306.046 433.644 280.502 428.452 279.631 428.893C274.323 431.581 272.045 431.317 263.223 429.644C262.743 429.553 262.283 429.496 261.822 429.437L259.636 449.96L324.359 450.33L306.046 433.644Z" fill="#5420A4" stroke="#263238" stroke-width="2.5" stroke-miterlimit="10" stroke-linecap="round" stroke-linejoin="round"/>
<path d="M268.248 430.532C266.824 430.316 265.193 430.018 263.223 429.644C262.743 429.553 262.283 429.496 261.822 429.437V430.649C264.458 431.005 266.337 431.008 268.248 430.532Z" fill="white" stroke="#5420A4" stroke-miterlimit="10" stroke-linecap="round" stroke-linejoin="round"/>
<path d="M425.882 173.074C424.243 172.424 422.981 172.374 418.8 172.872L404.794 176.556C398.826 178.126 392.511 177.745 386.775 175.469L376.22 171.28C373.397 170.16 368.889 174.844 366.151 181.742C363.414 188.64 363.483 195.141 366.306 196.262L377.003 200.507C382.483 202.682 387.168 206.481 390.428 211.393L399.435 224.965C399.678 225.417 399.948 225.826 400.246 226.187L400.26 226.209L400.261 226.207C400.847 226.912 401.536 227.439 402.332 227.755C408.395 230.161 418.25 219.663 424.344 204.307C430.439 188.95 431.945 175.48 425.882 173.074Z" fill="#5420A4"/>
<path d="M426.965 196.921C428.935 187.891 428.315 181.091 424.175 179.441C422.545 178.791 421.275 178.741 417.095 179.241L403.095 182.921C397.125 184.491 390.805 184.111 385.075 181.841L374.515 177.651C371.695 176.531 367.185 181.211 364.445 188.111C364.415 188.191 364.385 188.271 364.355 188.351C364.635 186.321 365.235 184.051 366.155 181.741C368.885 174.841 373.395 170.161 376.215 171.281L386.775 175.471C392.515 177.741 398.825 178.121 404.795 176.551L418.795 172.871C422.985 172.371 424.245 172.421 425.885 173.071C430.945 175.081 430.725 184.811 426.965 196.921Z" fill="white"/>
<path d="M425.882 173.074C424.243 172.424 422.981 172.374 418.8 172.872L404.794 176.556C398.826 178.126 392.511 177.745 386.775 175.469L376.22 171.28C373.397 170.16 368.889 174.844 366.151 181.742C363.414 188.64 363.483 195.141 366.306 196.262L377.003 200.507C382.483 202.682 387.168 206.481 390.428 211.393L399.435 224.965C399.678 225.417 399.948 225.826 400.246 226.187L400.26 226.209L400.261 226.207C400.847 226.912 401.536 227.439 402.332 227.755C408.395 230.161 418.25 219.663 424.344 204.307C430.439 188.95 431.945 175.48 425.882 173.074Z" stroke="#263238" stroke-width="2.5" stroke-miterlimit="10" stroke-linecap="round" stroke-linejoin="round"/>
<path d="M424.326 204.361C417.846 219.311 408.526 229.681 403.506 227.501C399.886 225.931 399.496 218.271 401.996 208.511C402.956 204.741 404.346 200.661 406.156 196.491C407.276 193.891 408.486 191.441 409.746 189.161C415.736 178.311 422.826 171.551 426.976 173.341C431.986 175.521 430.806 189.401 424.326 204.361Z" fill="#263238" stroke="#263238" stroke-width="2.5" stroke-miterlimit="10" stroke-linecap="round" stroke-linejoin="round"/>
<path d="M419.196 193.571L411.286 211.831L401.996 208.511C402.956 204.741 404.346 200.661 406.156 196.491C407.276 193.891 408.486 191.441 409.746 189.161L419.196 193.571Z" fill="white" stroke="#263238" stroke-width="2.5" stroke-miterlimit="10" stroke-linecap="round" stroke-linejoin="round"/>
<path d="M418.303 204.029C416.118 209.073 412.975 212.567 411.283 211.834C409.592 211.101 409.992 206.418 412.178 201.374C414.364 196.33 417.506 192.836 419.198 193.569C420.889 194.302 420.489 198.985 418.303 204.029Z" fill="white" stroke="#263238" stroke-width="2.5" stroke-miterlimit="10" stroke-linecap="round" stroke-linejoin="round"/>
<path d="M376.479 200.121C376.049 190.511 381.067 181.737 388.486 176.079C387.912 175.891 387.34 175.693 386.776 175.47L376.216 171.28C373.396 170.16 368.886 174.84 366.156 181.74C363.416 188.64 363.486 195.14 366.306 196.26L376.492 200.306C376.488 200.244 376.482 200.183 376.479 200.121Z" fill="#FF4900"/>
<path d="M383.974 180.255C385.343 178.731 386.851 177.326 388.485 176.08C387.911 175.892 387.339 175.694 386.775 175.471L376.215 171.281C374.369 170.548 371.799 172.311 369.478 175.546C374.47 176.678 379.308 178.261 383.974 180.255Z" fill="white"/>
<path d="M376.479 200.121C376.049 190.511 381.067 181.737 388.486 176.079C387.912 175.891 387.34 175.693 386.776 175.47L376.216 171.28C373.396 170.16 368.886 174.84 366.156 181.74C363.416 188.64 363.486 195.14 366.306 196.26L376.492 200.306C376.488 200.244 376.482 200.183 376.479 200.121Z" stroke="#263238" stroke-width="2.5" stroke-miterlimit="10" stroke-linecap="round" stroke-linejoin="round"/>
<path d="M402.523 183.764C403.843 183.697 405.16 183.533 406.448 183.229" stroke="#263238" stroke-width="2.5" stroke-miterlimit="10" stroke-linecap="round" stroke-linejoin="round"/>
<path d="M389.027 181.62C390.874 183.198 394.646 183.35 396.956 183.59" stroke="#263238" stroke-width="2.5" stroke-miterlimit="10" stroke-linecap="round" stroke-linejoin="round"/>
<path d="M192.755 301.291C185.382 291.738 182.66 281.452 182.229 272.108L175.046 279.412C175.046 279.412 171.546 286.124 175.046 302.624C178.546 319.124 203.546 349.624 203.546 349.624C203.546 349.624 203.546 349.624 211.546 345.124C214.599 343.407 221.256 338.628 228.321 333.377C223.585 331.158 209.753 323.314 192.755 301.291Z" fill="#FF4900"/>
<path d="M200.017 345.159C203.241 349.418 203.546 349.624 203.546 349.624C203.546 349.624 203.546 349.624 211.546 345.124C214.598 343.407 221.256 338.628 228.321 333.377C227.07 332.791 225.179 331.807 222.768 330.278C217.207 334.402 202.149 344.311 200.017 345.159Z" fill="white"/>
<path d="M192.755 301.291C185.382 291.738 182.66 281.452 182.229 272.108L175.046 279.412C175.046 279.412 171.546 286.124 175.046 302.624C178.546 319.124 203.546 349.624 203.546 349.624C203.546 349.624 203.546 349.624 211.546 345.124C214.599 343.407 221.256 338.628 228.321 333.377C223.585 331.158 209.753 323.314 192.755 301.291Z" stroke="#263238" stroke-width="2.5" stroke-miterlimit="10" stroke-linecap="round" stroke-linejoin="round"/>
<path d="M173.491 340.627C173.426 337.781 177.254 336.465 178.933 338.764C183.046 344.395 190.204 353.138 196.602 355.644C206.272 359.432 203.59 370.137 196.195 369.063C188.816 367.992 179.527 356.495 175.308 347.639C174.016 344.927 173.536 342.579 173.491 340.627Z" fill="#263238"/>
<path d="M213.068 360.088C214.731 360.851 215.418 362.735 214.603 364.298C213.788 365.86 211.779 366.508 210.116 365.746C208.453 364.983 207.766 363.099 208.581 361.536C209.397 359.974 211.406 359.326 213.068 360.088Z" fill="#263238"/>
<path d="M167.109 260.348C169.738 259.254 172.353 262.344 170.82 264.743C167.066 270.619 161.546 281.403 162.546 294.837C163.433 306.758 171.368 317.612 171.275 322.115C171.098 330.679 162.727 321.127 159.942 317.1C144.546 294.837 154.512 271.733 161.233 264.587C163.293 262.398 165.306 261.098 167.109 260.348Z" fill="#263238"/>
<path d="M386.805 220.148C385.855 224.348 383.008 226.757 382.758 227.367C383.008 227.757 392.285 230.147 377.61 242.814C374.766 245.269 364.971 256.794 303.911 256.324C301.101 256.304 297.291 254.874 292.971 252.524L292.961 252.514C281.571 244.644 268.799 228.408 264.229 224.398C264.019 224.218 263.809 224.038 263.609 223.848C264.109 223.318 264.679 222.728 265.319 222.058C269.859 217.308 269.978 223.834 280.588 220.404C290.648 217.144 291.883 213.345 302.645 200.528L315.988 214.861L356.058 210.971C356.058 210.971 355.828 208.151 359.678 202.671C363.448 197.281 366.948 198.021 367.078 198.051L364.858 207.831L372.408 209.551C372.408 209.551 372.408 209.541 372.418 209.521C372.668 209.131 375.548 204.461 378.028 200.441C378.188 200.431 378.358 200.431 378.538 200.431C380.718 200.431 384.301 202.178 384.031 205.148C384.031 205.168 382.384 211.831 382.394 211.831C382.584 211.921 387.815 215.718 386.805 220.148Z" fill="#FFAC8B"/>
<path d="M384.494 228.454C383.36 230.525 381.162 233.162 377.257 236.532C374.413 238.987 367.471 247.275 306.472 250.056C300.805 250.314 292.608 244.231 292.608 244.231C281.998 234.189 277.119 227.131 271.283 220.921C270.876 221.198 265.812 221.544 265.32 222.058C264.679 222.728 264.109 223.319 263.609 223.849C263.61 223.869 263.611 223.875 263.612 223.895C267.531 226.779 281.007 244.254 292.962 252.514L292.972 252.524C297.292 254.874 301.102 256.304 303.912 256.324C364.972 256.794 374.767 245.268 377.611 242.814C387.948 233.891 386.399 230.071 384.494 228.454Z" fill="white"/>
<path d="M386.592 220.959C385.642 225.159 383.008 226.756 382.758 227.366C383.008 227.756 395.287 231.147 377.61 242.813C374.474 244.882 364.971 256.793 303.911 256.323C301.101 256.303 297.291 254.873 292.971 252.523L292.961 252.513C285.061 248.203 272.469 231.827 264.229 224.397C264.019 224.217 263.809 224.037 263.609 223.847C264.109 223.317 264.679 222.727 265.319 222.057C269.859 217.307 275.801 223.82 285.793 218.87C291.519 216.033 292.417 210.61 303.357 200.36L315.987 214.859L356.057 210.969C356.057 210.969 355.827 208.149 359.677 202.669C363.447 197.279 366.947 198.019 367.077 198.049L364.857 207.829L372.407 209.549C372.407 209.549 372.407 209.539 372.417 209.519C372.587 209.119 374.397 204.729 377.007 200.499C377.007 200.499 377.417 200.459 378.027 200.439C378.187 200.429 378.357 200.429 378.537 200.429C380.717 200.429 384.3 202.176 384.03 205.146C384.03 205.166 384.157 203.869 384.147 203.889C383.636 206.252 382.523 211.839 382.393 211.829C382.584 211.921 387.602 216.529 386.592 220.959Z" stroke="#263238" stroke-width="2.5" stroke-miterlimit="10" stroke-linecap="round" stroke-linejoin="round"/>
<path d="M384.031 205.148C382.936 211.065 381.248 215.58 378.616 218.981" stroke="#263238" stroke-width="2.5" stroke-miterlimit="10" stroke-linecap="round" stroke-linejoin="round"/>
<path d="M385.512 223.53C385.512 223.53 382.805 228.815 377.472 232.226" stroke="#263238" stroke-width="2.5" stroke-miterlimit="10" stroke-linecap="round" stroke-linejoin="round"/>
<path d="M265.034 432.981C265.034 432.981 254.991 419.78 248.991 415.78C242.991 411.78 237.977 410.922 237.581 412.524C234.614 424.524 265.034 432.981 265.034 432.981Z" fill="#263238"/>
<path d="M303.957 419.823C303.957 419.823 315.335 419.005 316.061 421.981C317.593 428.258 305.953 428.866 305.953 428.866L303.957 419.823Z" fill="#263238"/>
<path d="M174.205 209.749C172.943 211.984 175.374 227.913 179.347 233.533" stroke="#263238" stroke-width="2.5" stroke-miterlimit="10" stroke-linecap="round" stroke-linejoin="round"/>
<path d="M168.873 212.625C167.875 216.626 168.635 220.778 169.781 224.66" stroke="#263238" stroke-width="2.5" stroke-miterlimit="10" stroke-linecap="round" stroke-linejoin="round"/>
<path d="M303.755 368.428C301.616 357.985 300.633 330.709 291.97 324.498C289.945 323.046 287.681 321.442 285.169 319.689H285.168C279.539 317.385 263.079 299.036 249.736 287.801C236.393 276.566 231.54 282.13 213.211 270.275C196.245 259.302 202.949 242.723 200.718 224.518L188.578 240.592C188.578 240.592 181.426 254.715 182.228 272.109C182.659 281.454 185.381 291.74 192.754 301.292C196.619 306.3 200.32 310.574 203.789 314.216C215.573 326.591 224.662 331.664 228.321 333.378C229.463 333.913 230.083 334.125 230.083 334.125C230.083 334.125 232.604 368.72 236.033 382.484C238.826 393.692 248.84 390.494 239.017 412.338C237.974 414.657 239.017 404.671 263.222 429.644C272.288 438.998 286.958 436.122 290.325 432.671C297.256 425.564 297.75 420.146 303.956 419.823C305.743 419.73 307.37 419.863 308.726 420.311C314.793 422.311 314.793 422.311 314.793 422.311L303.755 368.428Z" fill="#FF4900"/>
<path d="M303.755 368.428C301.616 357.985 300.633 330.709 291.971 324.498C289.946 323.046 287.681 321.442 285.17 319.689H285.169C279.54 317.385 263.08 299.036 249.737 287.801C240.809 280.284 235.678 280.283 227.772 277.557C230.06 280.142 239.915 286.925 243.854 290.241C257.197 301.476 274.567 320.811 280.196 323.116C280.196 323.116 285.178 327.09 287.203 328.542C295.866 334.754 297.022 360.292 299.161 370.735L309.633 420.423C309.921 420.487 314.794 422.313 314.794 422.313L303.755 368.428Z" fill="white"/>
<path d="M303.755 368.428C301.616 357.985 300.633 330.709 291.97 324.498C289.945 323.046 287.681 321.442 285.169 319.689H285.168C279.539 317.385 263.079 299.036 249.736 287.801C236.393 276.566 231.54 282.13 213.211 270.275C196.245 259.302 202.949 242.723 200.718 224.518L188.578 240.592C188.578 240.592 181.426 254.715 182.228 272.109C182.659 281.454 185.381 291.74 192.754 301.292C196.619 306.3 200.32 310.574 203.789 314.216C215.573 326.591 224.662 331.664 228.321 333.378C229.463 333.913 230.083 334.125 230.083 334.125C230.083 334.125 232.604 368.72 236.033 382.484C238.826 393.692 248.84 390.494 239.017 412.338C237.974 414.657 239.017 404.671 263.222 429.644C272.288 438.998 286.958 436.122 290.325 432.671C297.256 425.564 297.75 420.146 303.956 419.823C305.743 419.73 307.37 419.863 308.726 420.311C314.793 422.311 314.793 422.311 314.793 422.311L303.755 368.428Z" stroke="#263238" stroke-width="2.5" stroke-miterlimit="10" stroke-linecap="round" stroke-linejoin="round"/>
<path d="M263.609 372.151C266.338 382.108 259.444 398.704 254.593 402.534" stroke="#263238" stroke-width="2.5" stroke-miterlimit="10" stroke-linecap="round" stroke-linejoin="round"/>
<path d="M239.877 190.981C239.877 190.981 240.917 195.704 244.654 201.3C248.391 206.896 249.49 204.305 252.514 214.226C255.538 224.147 260.618 227.144 260.618 227.144C260.618 227.144 261.184 226.497 263.979 223.563C264.436 223.081 264.955 222.542 265.537 221.931C269.687 217.596 272.314 223.052 281.999 219.919C291.182 216.941 290.428 215.126 300.519 203.134C301.053 202.63 306.832 192.149 315.772 196.619" stroke="#263238" stroke-width="2.5" stroke-miterlimit="10" stroke-linecap="round" stroke-linejoin="round"/>
<path d="M315.418 198.646C315.418 198.646 315.418 198.646 315.408 198.62C315.395 198.538 316.668 198.578 316.276 196.613C315.788 194.128 309.802 187.353 303.584 182.506C297.356 177.665 303.334 180.916 299.748 168.943C297.112 160.142 286.787 158.315 286.787 158.315" stroke="#263238" stroke-width="2.5" stroke-miterlimit="10" stroke-linecap="round" stroke-linejoin="round"/>
<path d="M310.914 205.974C310.914 205.974 320.532 198.405 314.925 196.163C307.287 193.109 303.358 200.812 303.358 200.812L310.914 205.974Z" fill="#263238" stroke="#263238" stroke-width="2.5" stroke-miterlimit="10" stroke-linecap="round" stroke-linejoin="round"/>
<path d="M286.824 168.943C286.068 172.27 297.398 176.224 303.581 182.508" stroke="#263238" stroke-width="2.5" stroke-miterlimit="10" stroke-linecap="round" stroke-linejoin="round"/>
<path d="M282.1 169.98C281.502 172.614 283.598 175.332 286.786 176.056" stroke="#263238" stroke-width="2.5" stroke-miterlimit="10" stroke-linecap="round" stroke-linejoin="round"/>
<path d="M351.775 211.064C355.781 204.573 356.604 197.087 355.946 189.634" stroke="#263238" stroke-width="2.5" stroke-miterlimit="10" stroke-linecap="round" stroke-linejoin="round"/>
<path d="M314.369 263.117C314.369 263.117 296.197 275.673 291.81 284.173" stroke="#263238" stroke-width="2.5" stroke-miterlimit="10" stroke-linecap="round" stroke-linejoin="round"/>
</svg>
