<svg width="124" height="53" viewBox="0 0 124 53" fill="none" xmlns="http://www.w3.org/2000/svg">
<path fill-rule="evenodd" clip-rule="evenodd" d="M2.09473 26.5225C2.09473 13.2718 12.8215 2.5 26.1173 2.5C39.368 2.5 50.0947 13.2718 50.0947 26.5225C50.0947 39.7732 39.368 50.5 26.1173 50.5C12.8215 50.5 2.09473 39.7732 2.09473 26.5225Z" stroke="#3B0DA4" stroke-width="1.80282" stroke-linecap="round" stroke-linejoin="round"/>
<path d="M17.6672 23.2044V39.965M33.0663 28.6505L40.3433 28.7913M33.0663 33.9556L40.3433 34.0495M13.1602 23.58V39.7772C13.1602 39.7772 37.6202 41.2796 39.4982 37.8993C41.0475 35.0824 41.3292 24.4251 38.5592 23.7678C33.1602 22.5002 28.9348 22.9228 28.9348 22.9228C28.9348 22.9228 28.4184 11.3735 23.7235 12.2185C22.2681 12.4533 21.1883 22.9228 21.1883 22.9228L13.1602 23.58Z" stroke="#FF4900" stroke-width="1.87793" stroke-linecap="round" stroke-linejoin="round"/>
<path fill-rule="evenodd" clip-rule="evenodd" d="M73.0947 26.4753C73.0947 13.0237 84.0241 2.0943 97.4757 2.0943C110.977 2.0943 121.906 13.0237 121.906 26.4753C121.906 39.9763 110.977 50.9057 97.4757 50.9057C84.0241 50.9057 73.0947 39.9763 73.0947 26.4753Z" stroke="#3B0DA4" stroke-width="1.97817" stroke-linecap="round" stroke-linejoin="round"/>
<path fill-rule="evenodd" clip-rule="evenodd" d="M85.2109 18.3649C85.2109 16.09 87.0902 14.2108 89.4146 14.2108H105.586C107.91 14.2108 109.79 16.09 109.79 18.3649V34.5859C109.79 36.9103 107.91 38.7895 105.586 38.7895H89.4146C87.0902 38.7895 85.2109 36.9103 85.2109 34.5859V18.3649ZM92.4807 26.4754C92.4807 23.706 94.7062 21.4311 97.4756 21.4311C100.294 21.4311 102.52 23.706 102.52 26.4754C102.52 29.2449 100.294 31.5198 97.4756 31.5198C94.7062 31.5198 92.4807 29.2449 92.4807 26.4754Z" stroke="#FF4900" stroke-width="1.97817" stroke-linecap="round" stroke-linejoin="round"/>
<path fill-rule="evenodd" clip-rule="evenodd" d="M102.668 19.6504C102.668 18.6119 103.509 17.8206 104.498 17.8206C105.536 17.8206 106.328 18.6119 106.328 19.6504C106.328 20.6395 105.536 21.4308 104.498 21.4308C103.509 21.4308 102.668 20.6395 102.668 19.6504Z" fill="#FF4900"/>
</svg>
