<svg width="454" height="436" viewBox="0 0 454 436" fill="none" xmlns="http://www.w3.org/2000/svg">
<path fill-rule="evenodd" clip-rule="evenodd" d="M45.4499 383.132C45.4499 375.912 91.2457 370.026 147.724 370.026C204.202 370.026 249.949 375.912 249.949 383.132C249.949 390.353 204.202 396.188 147.724 396.188C91.2457 396.188 45.4499 390.353 45.4499 383.132ZM70.2766 407.266C70.2766 400.046 116.072 394.21 172.551 394.21C229.029 394.21 274.825 400.046 274.825 407.266C274.825 414.487 229.029 420.372 172.551 420.372C116.072 420.372 70.2766 414.487 70.2766 407.266ZM209.692 422.301C209.692 414.784 254.251 408.651 309.147 408.651C364.092 408.651 425.071 413.992 425.071 421.51C425.071 429.076 364.092 436 309.147 436C254.251 436 209.692 429.868 209.692 422.301Z" fill="#3B0DA4"/>
<path d="M0.989283 353.459H73.7878M240.206 353.459H266.714M331.402 353.459H375.071M386.891 353.459H452.123M152.521 39.7621V43.6691M152.521 48.1696V52.0766M146.389 45.9441H150.296M154.796 45.9441H158.703M320.423 12.2154V16.1718M320.423 20.6228V24.5793M314.241 18.3973H318.197M322.648 18.3973H326.605M24.085 213.401V217.308M24.085 221.808V225.764M17.9031 219.583H21.8595M26.3105 219.583H30.267M422.845 294.607V298.563M422.845 303.014V306.97M416.663 300.789H420.62M425.071 300.789H429.027" stroke="#263238" stroke-width="1.97817" stroke-linecap="round" stroke-linejoin="round"/>
<path d="M371.956 122.947C371.956 109.791 382.638 99.1585 395.744 99.1585C403.36 99.1585 410.086 102.719 414.438 108.258C417.603 112.314 419.532 117.408 419.532 122.947M371.956 122.947C371.956 136.052 382.638 146.685 395.744 146.685C408.849 146.685 419.532 136.052 419.532 122.947M371.956 122.947H419.532M395.496 99.1585V108.357V146.685M415.526 109.989C415.526 109.989 405.734 113.649 395.843 113.649C386.001 113.649 376.011 109.989 376.011 109.989M415.477 135.014C415.477 135.014 405.684 131.354 395.843 131.354C385.952 131.354 376.011 135.014 376.011 135.014M399.799 145.746C399.799 145.746 405.585 134.42 405.585 123.046C405.585 111.621 399.799 100.148 399.799 100.148M407.86 143.026C407.86 143.026 413.548 132.986 413.548 122.897C413.548 112.808 407.86 102.62 407.86 102.62M391.639 145.746C391.639 145.746 385.853 134.42 385.853 123.046C385.853 111.621 391.639 100.148 391.639 100.148M383.528 143.026C383.528 143.026 377.89 132.986 377.89 122.897C377.89 112.808 383.528 102.62 383.528 102.62" stroke="#FF4900" stroke-width="1.97817" stroke-linecap="round" stroke-linejoin="round"/>
<path fill-rule="evenodd" clip-rule="evenodd" d="M5.78677 147.328C5.78677 133.876 16.7164 122.946 30.1683 122.946C43.6697 122.946 54.5994 133.876 54.5994 147.328C54.5994 160.829 43.6697 171.759 30.1683 171.759C16.7164 171.759 5.78677 160.829 5.78677 147.328Z" stroke="#263238" stroke-width="1.97817" stroke-linecap="round" stroke-linejoin="round"/>
<path fill-rule="evenodd" clip-rule="evenodd" d="M17.9033 139.217C17.9033 136.943 19.7826 135.063 22.107 135.063H38.279C40.6034 135.063 42.4827 136.943 42.4827 139.217V155.439C42.4827 157.763 40.6034 159.643 38.279 159.643H22.107C19.7826 159.643 17.9033 157.763 17.9033 155.439V139.217ZM25.1733 147.328C25.1733 144.559 27.3987 142.284 30.1683 142.284C32.9872 142.284 35.2127 144.559 35.2127 147.328C35.2127 150.098 32.9872 152.373 30.1683 152.373C27.3987 152.373 25.1733 150.098 25.1733 147.328Z" stroke="#FF4900" stroke-width="1.97817" stroke-linecap="round" stroke-linejoin="round"/>
<path fill-rule="evenodd" clip-rule="evenodd" d="M35.3612 140.503C35.3612 139.464 36.202 138.673 37.1911 138.673C38.2297 138.673 39.021 139.464 39.021 140.503C39.021 141.492 38.2297 142.283 37.1911 142.283C36.202 142.283 35.3612 141.492 35.3612 140.503Z" fill="#FF4900"/>
<path fill-rule="evenodd" clip-rule="evenodd" d="M219.731 24.2828C219.731 22.898 220.671 21.7606 221.808 21.7606H243.272C244.409 21.7606 245.3 22.898 245.3 24.2828V40.0591C245.3 41.4439 244.409 42.5813 243.272 42.5813H221.808C220.671 42.5813 219.731 41.4439 219.731 40.0591V24.2828ZM228.287 26.261V37.982L234.073 34.8663L239.019 32.1462L228.287 26.261Z" stroke="#263238" stroke-width="1.97817" stroke-linecap="round" stroke-linejoin="round"/>
<path fill-rule="evenodd" clip-rule="evenodd" d="M208.703 32.1462C208.703 18.9911 219.385 8.35812 232.541 8.35812C245.696 8.35812 256.329 18.9911 256.329 32.1462C256.329 45.3014 245.696 55.9838 232.541 55.9838C219.385 55.9838 208.703 45.3014 208.703 32.1462Z" stroke="#FF4900" stroke-width="1.97817" stroke-linecap="round" stroke-linejoin="round"/>
<path fill-rule="evenodd" clip-rule="evenodd" d="M72.5521 27.3488C72.5521 12.8089 84.3225 0.989039 98.9119 0.989039C113.452 0.989039 125.222 12.8089 125.222 27.3488C125.222 41.8888 113.452 53.6592 98.9119 53.6592C84.3225 53.6592 72.5521 41.8888 72.5521 27.3488Z" stroke="#3B0DA4" stroke-width="1.97817" stroke-linecap="round" stroke-linejoin="round"/>
<path d="M90.0096 22.7991V40.4548M106.231 28.536L113.897 28.6844M106.231 34.1245L113.897 34.2234M85.2619 23.1948V40.2569C85.2619 40.2569 111.028 41.8395 113.006 38.2787C114.639 35.3114 114.935 24.085 112.017 23.3926C106.33 22.0573 101.879 22.5024 101.879 22.5024C101.879 22.5024 101.335 10.3363 96.3894 11.2265C94.8563 11.4738 93.7188 22.5024 93.7188 22.5024L85.2619 23.1948Z" stroke="#FF4900" stroke-width="1.97817" stroke-linecap="round" stroke-linejoin="round"/>
<path fill-rule="evenodd" clip-rule="evenodd" d="M393.864 24.5793C393.864 12.0176 404.052 1.78032 416.663 1.78032C429.225 1.78032 439.462 12.0176 439.462 24.5793C439.462 37.1905 429.225 47.3783 416.663 47.3783C404.052 47.3783 393.864 37.1905 393.864 24.5793Z" stroke="#3B0DA4" stroke-width="1.97817" stroke-linecap="round" stroke-linejoin="round"/>
<path fill-rule="evenodd" clip-rule="evenodd" d="M423.29 15.9244C419.482 16.0233 416.366 23.1449 416.366 23.1449C416.366 23.1449 413.844 15.232 409.393 16.0727C408.75 16.2211 408.008 16.4684 407.464 17.1608C402.172 24.0351 416.366 36.3495 416.366 36.3495C416.366 36.3495 431.302 22.6998 425.466 16.7157C424.823 16.0233 423.933 15.8749 423.29 15.9244Z" fill="#FF4900"/>
<path fill-rule="evenodd" clip-rule="evenodd" d="M269.681 152.916C269.681 142.58 278.089 134.173 288.425 134.173C298.761 134.173 307.119 142.58 307.119 152.916C307.119 163.253 298.761 171.611 288.425 171.611C278.089 171.611 269.681 163.253 269.681 152.916Z" stroke="#263238" stroke-width="1.97817" stroke-linecap="round" stroke-linejoin="round"/>
<path fill-rule="evenodd" clip-rule="evenodd" d="M286.447 164.736C284.913 163.797 284.419 161.818 285.309 160.285C286.199 158.752 288.178 158.258 289.711 159.148C291.244 160.088 291.788 162.066 290.848 163.599C289.958 165.132 287.98 165.627 286.447 164.736ZM278.88 150.839C277.347 149.949 276.803 147.971 277.742 146.438C278.633 144.905 280.611 144.41 282.144 145.3C283.677 146.24 284.172 148.218 283.281 149.702C282.391 151.235 280.413 151.779 278.88 150.839ZM294.656 150.889C293.123 149.949 292.629 147.971 293.519 146.438C294.458 144.905 296.437 144.41 297.97 145.3C299.503 146.24 299.997 148.218 299.058 149.751C298.168 151.284 296.189 151.779 294.656 150.889Z" fill="#263238"/>
<path d="M281.749 149.702L288.079 161.917M282.095 148.119L295.893 147.872" stroke="#263238" stroke-width="1.97817" stroke-linecap="round" stroke-linejoin="round"/>
<path fill-rule="evenodd" clip-rule="evenodd" d="M285.458 97.0813L316.318 103.807L310.482 115.083L284.864 98.4166L285.458 97.0813ZM291.244 53.6593L297.475 61.5227L278.583 77.5463L276.951 75.4692L291.244 53.6593Z" fill="#3B0DA4"/>
<path fill-rule="evenodd" clip-rule="evenodd" d="M374.428 49.5048L353.211 51.6809L354.2 56.5275L366.96 55.1428L328.385 81.3047L325.269 66.6659L290.057 83.0851L291.342 85.9536L320.521 74.8261L322.895 93.0752L370.867 59.3465L367.801 70.9191L372.598 71.9082L377.296 52.4227C377.642 50.6918 376.159 49.1586 374.428 49.5048Z" fill="#FF4900"/>
<path d="M381.253 337.435V364.339V416.663M326.605 337.435V348.315V369.482" stroke="#263238" stroke-width="1.97817" stroke-linecap="round" stroke-linejoin="round"/>
<path fill-rule="evenodd" clip-rule="evenodd" d="M365.576 207.219C373.884 207.367 378.236 211.076 381.599 218.742C389.908 237.535 390.847 277.05 390.847 322.252V328.088C390.847 330.759 388.77 332.984 386.248 332.984H310.68C308.108 332.984 306.031 330.759 306.031 328.088V322.252C306.031 319.532 308.108 317.356 310.68 317.356H340.304C340.304 273.984 340.353 236.051 348.464 218.049C351.778 210.631 357.267 207.021 365.576 207.219Z" fill="#263238"/>
<path d="M381.253 266.12V320.521" stroke="white" stroke-width="1.97817" stroke-linecap="round" stroke-linejoin="round"/>
<path fill-rule="evenodd" clip-rule="evenodd" d="M309.394 281.451C309.394 281.451 265.527 294.409 257.96 306.377C250.443 318.345 240.799 396.633 240.799 396.633H289.265L326.604 281.253L309.394 281.451Z" fill="#263238"/>
<path fill-rule="evenodd" clip-rule="evenodd" d="M320.868 283.677C320.868 283.677 274.528 296.634 270.374 311.916C266.22 327.247 288.722 408.206 288.722 408.206H343.321L315.923 327.445C315.923 327.445 360.185 324.725 366.516 313.35C376.159 296.09 359.79 274.379 359.79 274.379L320.868 283.677Z" fill="#FF4900"/>
<g opacity="0.3">
<path fill-rule="evenodd" clip-rule="evenodd" d="M342.727 406.376V408.206H343.32L342.727 406.376ZM334.814 382.984V408.255H336.841V388.918L334.814 382.984ZM326.851 359.591V408.255H328.879V365.526L326.851 359.591ZM318.889 336.149V408.255H320.917V342.084L318.889 336.149ZM273.242 307.02C272.401 308.009 271.758 308.998 271.214 310.037V331.303C271.758 335.012 272.45 338.919 273.242 343.122V307.02ZM281.204 300.393C280.462 300.838 279.819 301.333 279.176 301.778V370.57C279.869 373.538 280.512 375.862 281.204 378.73V300.393ZM289.117 295.843C288.424 296.189 287.781 296.535 287.139 296.931V402.172C287.633 404.151 288.721 408.206 288.721 408.206H289.117V295.843ZM297.079 292.134C296.387 292.431 295.744 292.777 295.051 293.073V408.206H297.079V292.134ZM305.041 289.166C304.349 289.414 303.706 289.612 303.014 289.908V408.255H305.041V289.166ZM366.515 286.842V313.35C367.454 311.718 368.048 310.037 368.542 308.355V293.172C367.998 290.947 367.306 288.82 366.515 286.842ZM312.954 286.199C312.41 286.347 311.57 286.743 310.976 286.941V408.255H312.954V286.199ZM320.917 283.677C320.917 283.677 319.285 284.171 318.889 284.32V327.198C319.482 327.148 319.928 327.049 320.917 327V283.677ZM328.83 281.748L326.802 282.243V326.258C327.445 326.209 328.187 326.06 328.83 326.011V281.748ZM336.792 279.819L334.764 280.314V325.17C335.506 325.022 336.05 324.972 336.792 324.873V279.819ZM344.754 277.94L342.727 278.385V323.785C343.419 323.637 344.062 323.538 344.754 323.39V277.94ZM352.667 276.011L350.689 276.506V321.857C351.381 321.659 352.024 321.461 352.667 321.263V276.011ZM359.789 274.28L358.602 274.577V318.939C359.294 318.642 359.987 318.345 360.629 317.999V275.517C360.432 275.22 359.789 274.28 359.789 274.28Z" fill="white"/>
</g>
<path fill-rule="evenodd" clip-rule="evenodd" d="M384.369 223.341C384.369 223.341 386.1 191.442 397.92 183.233C404.695 178.584 419.68 178.139 425.269 191.245C430.857 204.35 422.499 259.444 403.508 268.049C384.468 276.704 369.582 262.708 369.582 262.708C369.582 262.708 363.4 286.051 330.364 289.76C312.312 291.837 303.015 282.54 303.015 282.54C303.015 282.54 291.145 295.645 278.534 294.508C264.34 293.271 254.548 285.705 260.087 262.708C265.33 240.799 280.315 224.578 297.08 215.478C311.719 207.515 324.676 205.29 344.063 207.219C363.449 209.147 384.369 223.341 384.369 223.341Z" fill="#3B0DA4"/>
<path fill-rule="evenodd" clip-rule="evenodd" d="M325.616 214.785C325.616 213.45 326.704 212.411 327.989 212.411C329.275 212.411 330.363 213.45 330.363 214.785C330.363 216.071 329.275 217.159 327.989 217.159C326.704 217.159 325.616 216.071 325.616 214.785ZM324.923 223.39C324.923 222.055 326.011 221.017 327.297 221.017C328.632 221.017 329.671 222.055 329.671 223.39C329.671 224.676 328.632 225.715 327.297 225.715C326.011 225.715 324.923 224.676 324.923 223.39Z" fill="#263238"/>
<path fill-rule="evenodd" clip-rule="evenodd" d="M353.261 243.618C353.261 240.057 350.491 237.238 347.128 237.238H293.123C289.76 237.238 287.04 240.057 287.04 243.618V274.132C287.04 277.643 289.76 280.462 293.123 280.462H347.128C350.491 280.462 353.261 277.643 353.261 274.132V243.618Z" fill="white"/>
<path d="M346.98 273.786H308.751M323.439 251.284C323.439 249.355 321.956 247.822 320.126 247.822C318.296 247.822 316.862 249.355 316.862 251.284C316.862 253.212 318.296 254.745 320.126 254.745C321.956 254.745 323.439 253.212 323.439 251.284Z" stroke="#3B0DA4" stroke-width="1.97817" stroke-linecap="round" stroke-linejoin="round"/>
<path d="M278.534 266.121C278.534 266.121 282.59 250.344 285.903 251.086C288.524 251.63 288.425 253.955 288.376 255.933C288.277 259.988 285.607 265.379 288.722 266.961C291.887 268.544 302.421 258.307 305.685 261.917C308.554 265.131 295.399 273.391 295.399 273.391C295.399 273.391 299.602 271.116 302.075 268.989C304.795 266.763 305.488 266.121 305.488 266.121C305.488 266.121 310.483 269.83 304.548 274.924C298.663 280.067 296.833 279.474 296.833 279.474C296.833 279.474 299.306 279.177 302.421 276.704C306.328 273.588 307.169 271.857 307.169 271.857C307.169 271.857 310.334 277.842 303.608 283.183C291.591 292.777 279.622 285.507 279.622 285.507M402.569 183.332C402.569 183.332 400.195 173.144 404.794 168.94C409.443 164.687 417.455 167.012 417.455 167.012C417.455 167.012 418.691 163.352 419.384 160.335C420.027 157.269 420.62 154.45 422.401 154.302C424.181 154.203 425.714 160.236 424.725 163.599C423.686 167.012 422.945 168.99 422.945 168.99C422.945 168.99 424.478 165.231 424.923 163.302C426.357 157.219 425.417 156.329 426.555 153.758C427.593 151.582 430.066 152.175 431.154 156.379C431.945 159.346 431.748 162.017 430.363 165.874C429.225 169.089 428.533 171.166 428.533 171.166C428.533 171.166 431.748 170.177 433.973 166.22C435.605 163.302 435.21 159.247 436.891 159.297C438.523 159.346 440.501 162.313 438.82 167.951C437.138 173.54 434.22 177.051 430.017 178.733C425.813 180.365 419.334 181.552 416.763 185.211" stroke="#263238" stroke-width="1.97817" stroke-linecap="round" stroke-linejoin="round"/>
<path fill-rule="evenodd" clip-rule="evenodd" d="M321.016 178.485C321.016 178.485 315.576 176.359 315.922 172.353C316.268 168.396 319.483 165.478 324.577 165.379C330.561 165.231 336.051 171.512 336.051 171.512C336.051 171.512 344.409 168.446 348.761 174.38C352.371 179.227 349.255 185.755 349.255 185.755C349.255 185.755 353.607 190.305 350.689 195.053C347.772 199.751 339.908 198.515 339.908 198.515C339.908 198.515 348.167 188.03 342.035 180.266C333.281 169.237 321.016 178.485 321.016 178.485ZM352.915 184.469C352.915 184.469 357.465 173.441 363.35 168.94C368.84 164.687 377.692 163.154 380.264 169.039C382.39 173.737 379.72 178.93 373.835 181.65C364.042 186.299 352.915 184.469 352.915 184.469ZM331.896 175.023C331.896 175.023 330.759 180.711 334.666 186.25C338.474 191.64 343.469 192.827 343.469 192.827C343.469 192.827 348.019 183.48 340.798 177.397C337.93 174.974 331.896 175.023 331.896 175.023Z" fill="#263238"/>
<path fill-rule="evenodd" clip-rule="evenodd" d="M317.604 187.881C317.604 180.414 323.638 174.38 331.056 174.38C338.524 174.38 344.557 180.414 344.557 187.881C344.557 195.3 338.524 201.333 331.056 201.333C323.638 201.333 317.604 195.3 317.604 187.881Z" stroke="#263238" stroke-width="1.97817" stroke-linecap="round" stroke-linejoin="round"/>
<path fill-rule="evenodd" clip-rule="evenodd" d="M328.731 187.882C328.83 187.041 329.621 186.447 330.412 186.546C331.253 186.695 331.846 187.436 331.698 188.277C331.599 189.118 330.857 189.662 330.017 189.563C329.176 189.464 328.632 188.673 328.731 187.882Z" fill="#FF4900"/>
<path fill-rule="evenodd" clip-rule="evenodd" d="M326.258 184.172C326.357 183.431 327 182.986 327.693 183.035C328.385 183.134 328.88 183.826 328.781 184.519C328.682 185.211 328.039 185.706 327.347 185.607C326.654 185.508 326.16 184.865 326.258 184.172ZM320.175 180.562C320.274 179.87 320.917 179.375 321.61 179.474C322.302 179.573 322.797 180.216 322.698 180.908C322.599 181.601 321.956 182.095 321.263 181.996C320.571 181.897 320.077 181.255 320.175 180.562Z" fill="#263238"/>
<path d="M326.06 188.475C326.06 188.475 325.368 189.909 324.23 190.255C322.549 190.75 321.065 189.86 321.065 189.86M324.576 181.996L320.422 186.101L323.29 187.09M330.016 414.289C330.016 418.443 330.363 429.867 330.363 429.867C330.363 429.867 281.402 432.835 276.506 430.461C273.192 428.878 280.709 424.328 287.93 420.125C294.854 416.168 302.964 413.25 302.964 413.25" stroke="#263238" stroke-width="1.97817" stroke-linecap="round" stroke-linejoin="round"/>
<path d="M301.234 420.273L292.876 413.053M297.08 422.103L288.722 414.883" stroke="#FF4900" stroke-width="1.97817" stroke-linecap="round" stroke-linejoin="round"/>
<path d="M283.331 400.392C283.331 404.546 283.677 415.97 283.677 415.97C283.677 415.97 234.716 418.987 229.82 416.564C226.507 414.981 234.024 410.431 241.245 406.228C248.168 402.271 256.279 399.353 256.279 399.353" stroke="#263238" stroke-width="1.97817" stroke-linecap="round" stroke-linejoin="round"/>
<path d="M254.548 406.376L246.19 399.156M250.393 408.206L242.035 400.985" stroke="#FF4900" stroke-width="1.97817" stroke-linecap="round" stroke-linejoin="round"/>
<path d="M136.646 99.2077L99.7525 133.184M125.222 120.127L98.9118 145.795M212.066 207.268L175.172 241.195M200.642 228.138L174.282 253.855M136.646 367.405C136.646 366.515 137.339 365.823 138.229 365.823H168.347C169.188 365.823 169.88 366.515 169.88 367.405V371.609C169.88 372.499 169.188 373.191 168.347 373.191H138.229C137.339 373.191 136.646 372.499 136.646 371.609V367.405ZM77.1514 91.7894C77.1514 83.1841 84.3224 76.2109 93.175 76.2109H218.841C227.694 76.2109 234.865 83.1841 234.865 91.7894V365.773C234.865 374.378 227.694 381.352 218.841 381.352H93.175C84.3224 381.352 77.1514 374.378 77.1514 365.773V91.7894ZM90.4549 101.73C90.4549 94.0644 96.439 87.8824 103.808 87.8824H208.209C215.577 87.8824 221.562 94.0644 221.562 101.73V345.15C221.562 352.766 215.577 358.948 208.209 358.948H103.808C96.439 358.948 90.4549 352.766 90.4549 345.15V101.73Z" stroke="#263238" stroke-width="1.97817" stroke-linecap="round" stroke-linejoin="round"/>
<path fill-rule="evenodd" clip-rule="evenodd" d="M219.979 99.2078L205.686 108.11L207.12 113.352L217.803 112.66C217.803 112.66 222.006 122.205 229.177 124.628C236.348 127.051 238.772 126.26 244.014 123.144C249.207 120.078 249.207 111.868 249.207 111.868L273.984 111.127C273.984 111.127 276.803 99.9991 274.281 92.2345C271.808 84.47 260.285 76.4582 260.285 76.4582L238.079 90.4047C238.079 90.4047 235.656 88.8221 234.37 89.2672C233.084 89.7123 232.936 92.1356 232.936 92.1356C232.936 92.1356 230.265 90.3552 228.633 91.196C226.952 92.0367 226.21 95.4986 226.21 95.4986C226.21 95.4986 223.094 93.5204 221.512 94.46C219.979 95.3502 219.979 99.2078 219.979 99.2078ZM80.6129 254.943C81.8493 262.312 86.1025 280.809 80.8108 281.056C77.1511 281.254 76.0136 275.072 74.3321 267.802C72.9968 262.015 71.3153 253.806 73.9364 252.025C77.1511 249.8 80.1678 252.569 80.6129 254.943Z" fill="white"/>
<path fill-rule="evenodd" clip-rule="evenodd" d="M136.646 214.785C136.646 214.785 162.462 289.661 162.808 301.877C163.204 314.141 158.555 390.995 158.555 390.995H213.648C213.648 390.995 210.582 315.675 206.576 294.755C201.828 269.681 170.029 207.219 170.029 207.219L136.646 214.785Z" fill="#263238"/>
<path fill-rule="evenodd" clip-rule="evenodd" d="M128.04 207.219C128.04 207.219 114.341 217.308 112.857 227.001C111.423 236.694 119.632 248.514 119.632 248.514L110.137 281.798L91.4923 319.483C91.4923 319.483 91.0472 346.09 91.8385 348.661C93.0749 352.717 96.9324 357.563 103.065 357.811C109.642 358.009 125.221 357.91 125.221 357.91C125.221 357.91 150.097 307.317 153.262 294.013C156.427 280.759 162.807 210.136 162.807 210.136L128.04 207.219Z" fill="#3B0DA4"/>
<path d="M153.263 221.017C153.263 221.017 148.96 278.731 144.757 291.491C140.504 304.201 114.243 358.948 114.243 358.948" stroke="#263238" stroke-width="1.97817" stroke-linecap="round" stroke-linejoin="round"/>
<path fill-rule="evenodd" clip-rule="evenodd" d="M121.068 191.838C121.068 191.838 119.287 217.95 154.5 215.675C178.634 214.142 190.998 186.299 190.998 186.299C190.998 186.299 220.078 204.4 236.497 193.964C252.916 183.48 259.148 134.173 250.938 124.925C245.152 118.446 226.507 117.753 219.484 127.101C211.967 136.942 214.687 151.68 214.687 151.68C214.687 151.68 195.053 134.123 152.076 139.019C119.139 142.729 105.094 156.823 90.2569 170.325C81.7506 178.139 48.7637 222.945 55.4897 247.97C57.7152 256.229 75.2719 269.533 90.5042 253.41C104.896 238.178 121.068 191.838 121.068 191.838Z" fill="#FF4900"/>
<g opacity="0.3">
<path fill-rule="evenodd" clip-rule="evenodd" d="M83.7285 255.24C81.0084 255.24 78.7829 257.466 78.7829 260.186C78.7829 260.334 78.8324 260.433 78.8818 260.532C81.5524 259.889 84.2725 258.603 86.9925 256.526C86.1023 255.784 85.0143 255.24 83.7285 255.24ZM98.219 236.793C95.4494 236.793 93.2239 238.969 93.2239 241.739C93.2239 243.717 94.4109 245.398 96.0924 246.19C97.7738 243.667 99.4553 240.799 101.087 237.832C100.296 237.189 99.307 236.793 98.219 236.793ZM70.2766 236.793C67.5071 236.793 65.2816 238.969 65.2816 241.739C65.2816 244.459 67.5071 246.684 70.2766 246.684C72.9966 246.684 75.2221 244.459 75.2221 241.739C75.2221 238.969 72.9966 236.793 70.2766 236.793ZM59.3469 219.78C58.2589 222.55 57.1709 225.369 56.4785 228.089C58.9018 227.743 60.7811 225.765 60.7811 223.292C60.7811 221.907 60.2371 220.671 59.3469 219.78ZM110.484 218.544C108.308 219.088 106.725 220.967 106.725 223.292C106.725 224.083 106.973 224.775 107.319 225.468C108.407 223.143 109.445 220.819 110.484 218.544ZM83.7285 218.297C81.0084 218.297 78.7829 220.522 78.7829 223.292C78.7829 226.012 81.0084 228.237 83.7285 228.237C86.498 228.237 88.7235 226.012 88.7235 223.292C88.7235 220.522 86.498 218.297 83.7285 218.297ZM182.046 199.8C179.277 199.8 177.051 202.075 177.051 204.795C177.051 204.944 177.15 205.043 177.15 205.191C179.079 203.46 180.76 201.63 182.244 199.85C182.145 199.85 182.096 199.8 182.046 199.8ZM154.104 199.8C151.334 199.8 149.109 202.075 149.109 204.795C149.109 207.515 151.334 209.741 154.104 209.741C156.824 209.741 159.049 207.515 159.049 204.795C159.049 202.075 156.824 199.8 154.104 199.8ZM126.161 199.8C124.875 199.8 123.738 200.295 122.897 201.086C123.985 203.757 125.568 206.625 128.387 209.098C129.969 208.257 131.107 206.675 131.107 204.795C131.107 202.075 128.881 199.8 126.161 199.8ZM98.219 199.8C95.4494 199.8 93.2239 202.075 93.2239 204.795C93.2239 207.515 95.4494 209.741 98.219 209.741C100.939 209.741 103.165 207.515 103.165 204.795C103.165 202.075 100.939 199.8 98.219 199.8ZM70.2766 199.8C69.7326 199.8 69.238 199.949 68.7434 200.097C67.606 202.026 66.5674 203.955 65.5288 205.982C66.0728 208.109 67.9522 209.741 70.2766 209.741C72.9966 209.741 75.2221 207.515 75.2221 204.795C75.2221 202.075 72.9966 199.8 70.2766 199.8ZM223.49 181.353C220.77 181.353 218.495 183.579 218.495 186.299C218.495 189.069 220.77 191.245 223.49 191.245C226.21 191.245 228.435 189.069 228.435 186.299C228.435 183.579 226.21 181.353 223.49 181.353ZM195.547 181.353C192.827 181.353 190.552 183.579 190.552 186.299C190.552 186.546 190.651 186.695 190.701 186.892C190.75 186.843 190.998 186.299 190.998 186.299C190.998 186.299 194.064 188.079 198.465 190.206C199.652 189.316 200.493 187.931 200.493 186.299C200.493 183.579 198.317 181.353 195.547 181.353ZM167.605 181.353C164.885 181.353 162.61 183.579 162.61 186.299C162.61 189.069 164.885 191.245 167.605 191.245C170.325 191.245 172.551 189.069 172.551 186.299C172.551 183.579 170.325 181.353 167.605 181.353ZM139.663 181.353C136.943 181.353 134.668 183.579 134.668 186.299C134.668 189.069 136.943 191.245 139.663 191.245C142.383 191.245 144.608 189.069 144.608 186.299C144.608 183.579 142.383 181.353 139.663 181.353ZM111.671 181.353C108.951 181.353 106.725 183.579 106.725 186.299C106.725 189.069 108.951 191.245 111.671 191.245C114.44 191.245 116.666 189.069 116.666 186.299C116.666 183.579 114.44 181.353 111.671 181.353ZM83.7285 181.353C81.0084 181.353 78.7829 183.579 78.7829 186.299C78.7829 189.069 81.0084 191.245 83.7285 191.245C86.498 191.245 88.7235 189.069 88.7235 186.299C88.7235 183.579 86.498 181.353 83.7285 181.353ZM98.5651 162.956C96.7847 164.506 95.0208 166.072 93.2734 167.654C93.2734 167.704 93.2239 167.753 93.2239 167.852C93.2239 170.572 95.4494 172.798 98.219 172.798C100.939 172.798 103.165 170.572 103.165 167.852C103.165 165.231 101.087 163.104 98.5651 162.956ZM237.931 162.857C235.161 162.857 232.936 165.083 232.936 167.852C232.936 170.572 235.161 172.798 237.931 172.798C240.651 172.798 242.876 170.572 242.876 167.852C242.876 165.083 240.651 162.857 237.931 162.857ZM209.988 162.857C207.219 162.857 204.993 165.083 204.993 167.852C204.993 170.572 207.219 172.798 209.988 172.798C212.709 172.798 214.934 170.572 214.934 167.852C214.934 165.083 212.709 162.857 209.988 162.857ZM182.046 162.857C179.277 162.857 177.051 165.083 177.051 167.852C177.051 170.572 179.277 172.798 182.046 172.798C184.766 172.798 186.992 170.572 186.992 167.852C186.992 165.083 184.766 162.857 182.046 162.857ZM154.104 162.857C151.334 162.857 149.109 165.083 149.109 167.852C149.109 170.572 151.334 172.798 154.104 172.798C156.824 172.798 159.049 170.572 159.049 167.852C159.049 165.083 156.824 162.857 154.104 162.857ZM126.161 162.857C123.392 162.857 121.166 165.083 121.166 167.852C121.166 170.572 123.392 172.798 126.161 172.798C128.881 172.798 131.107 170.572 131.107 167.852C131.107 165.083 128.881 162.857 126.161 162.857ZM116.567 149.85C114.243 151.136 112.017 152.521 109.94 153.955C110.484 154.153 111.077 154.301 111.671 154.301C114.243 154.301 116.32 152.323 116.567 149.85ZM251.432 144.41C248.712 144.41 246.487 146.586 246.487 149.356C246.487 152.076 248.712 154.301 251.432 154.301C252.224 154.301 252.965 154.103 253.608 153.757C253.954 150.889 254.202 148.119 254.35 145.449C253.509 144.806 252.57 144.41 251.432 144.41ZM223.49 144.41C220.77 144.41 218.495 146.586 218.495 149.356C218.495 152.076 220.77 154.301 223.49 154.301C226.21 154.301 228.435 152.076 228.435 149.356C228.435 146.586 226.21 144.41 223.49 144.41ZM195.547 144.41C192.827 144.41 190.552 146.586 190.552 149.356C190.552 152.076 192.827 154.301 195.547 154.301C198.317 154.301 200.493 152.076 200.493 149.356C200.493 146.586 198.317 144.41 195.547 144.41ZM167.605 144.41C164.885 144.41 162.61 146.586 162.61 149.356C162.61 152.076 164.885 154.301 167.605 154.301C170.325 154.301 172.551 152.076 172.551 149.356C172.551 146.586 170.325 144.41 167.605 144.41ZM139.663 144.41C136.943 144.41 134.668 146.586 134.668 149.356C134.668 152.076 136.943 154.301 139.663 154.301C142.383 154.301 144.608 152.076 144.608 149.356C144.608 146.586 142.383 144.41 139.663 144.41ZM237.931 125.914C235.161 125.914 232.936 128.139 232.936 130.859C232.936 133.579 235.161 135.805 237.931 135.805C240.651 135.805 242.876 133.579 242.876 130.859C242.876 128.139 240.651 125.914 237.931 125.914Z" fill="white"/>
</g>
<path d="M175.172 141.888L171.265 154.994L161.918 143.718L153.263 157.813L145.449 144.707M190.8 161.472C190.8 161.472 192.728 166.665 192.481 174.133C192.382 178.386 191.047 183.233 191.047 183.233" stroke="white" stroke-width="1.97817" stroke-linecap="round" stroke-linejoin="round"/>
<path d="M259.889 76.8537L238.475 90.0089M273.786 111.225L229.177 112.412M218.643 112.709L207.12 113.352L205.637 108.159L219.979 99.7022" stroke="#263238" stroke-width="1.97817" stroke-linecap="round" stroke-linejoin="round"/>
<path fill-rule="evenodd" clip-rule="evenodd" d="M259.938 75.9143C259.938 75.9143 271.56 77.843 275.22 90.7509C279.473 105.489 274.478 111.868 274.478 111.868C274.478 111.868 264.538 107.566 260.532 95.3008C256.674 83.7282 259.938 75.9143 259.938 75.9143Z" fill="#263238"/>
<path d="M244.014 124.628C244.014 124.628 246.685 121.364 247.723 118.644C249.009 115.281 249.207 111.868 249.207 111.868M240.948 116.369C240.948 116.369 239.415 113.946 236.546 113.204C233.678 112.462 229.524 113.402 229.524 113.402C229.524 113.402 221.66 104.45 218.594 105.637C215.577 106.824 218.297 113.599 222.254 118.248C225.221 121.76 230.859 126.26 230.859 126.26M236.893 89.564C239.168 91.1466 241.195 94.9547 240.948 98.7627C240.701 102.571 238.722 103.263 236.546 100.79C234.42 98.3176 232.59 93.1743 232.837 91.4433C233.134 89.6629 234.618 88.0309 236.893 89.564ZM230.958 92.284C233.431 94.4106 235.706 99.5046 235.063 103.51C234.42 107.566 232.046 108.357 229.82 105.241C227.595 102.126 226.161 95.1525 226.655 93.3226C227.15 91.4433 228.485 90.1575 230.958 92.284ZM224.281 95.3008C226.655 97.5263 228.386 101.878 227.892 106.478C227.447 110.533 224.924 109.89 222.847 106.676C220.77 103.461 220.127 99.8507 219.979 97.9714C219.731 95.0041 221.908 93.0259 224.281 95.3008Z" stroke="#263238" stroke-width="1.97817" stroke-linecap="round" stroke-linejoin="round"/>
<path d="M261.225 86.4975C261.225 86.4975 267.753 87.635 269.286 92.9762C270.77 98.3174 267.704 103.115 267.704 103.115" stroke="#3B0DA4" stroke-width="1.97817" stroke-linecap="round" stroke-linejoin="round"/>
<path fill-rule="evenodd" clip-rule="evenodd" d="M175.023 120.671C175.172 113.649 169.583 107.862 162.561 107.714C155.587 107.566 149.752 113.154 149.603 120.177C149.455 127.2 155.043 132.986 162.066 133.134C169.089 133.283 174.875 127.694 175.023 120.671Z" stroke="#263238" stroke-width="1.97817" stroke-linecap="round" stroke-linejoin="round"/>
<path fill-rule="evenodd" clip-rule="evenodd" d="M164.489 100.395C169.336 101.235 168.594 106.379 168.594 106.379C168.594 106.379 171.611 103.955 174.825 107.22C178.238 110.731 174.677 115.33 174.677 115.33C174.677 115.33 172.105 111.819 169.138 109.94C166.368 108.159 163.154 108.011 163.154 108.011C163.154 108.011 161.818 114.489 156.477 119.039C153.559 121.562 151.482 122.106 150.493 122.353C151.433 126.705 155.587 131.651 155.587 131.651C155.587 131.651 148.713 135.211 145.053 131.255C142.185 128.09 144.806 123.935 144.806 123.935C144.806 123.935 139.217 122.551 140.652 115.627C141.492 111.324 146.685 109.544 146.685 109.544C146.685 109.544 146.042 104.895 149.603 102.571C153.955 99.7022 158.258 103.313 158.258 103.313C158.258 103.313 160.978 99.7517 164.489 100.395Z" fill="#263238"/>
<path fill-rule="evenodd" clip-rule="evenodd" d="M162.313 121.067C162.363 120.276 161.72 119.584 160.879 119.584C160.088 119.584 159.395 120.226 159.395 121.018C159.346 121.859 159.989 122.501 160.83 122.551C161.621 122.551 162.313 121.908 162.313 121.067Z" fill="#FF4900"/>
<path fill-rule="evenodd" clip-rule="evenodd" d="M164.688 117.457C164.688 116.814 164.144 116.27 163.501 116.27C162.858 116.22 162.363 116.764 162.314 117.407C162.314 118.05 162.808 118.594 163.451 118.594C164.094 118.594 164.638 118.1 164.688 117.457ZM171.71 114.489C171.71 113.846 171.216 113.302 170.573 113.302C169.88 113.253 169.386 113.797 169.336 114.44C169.336 115.083 169.88 115.627 170.523 115.627C171.166 115.627 171.661 115.132 171.71 114.489Z" fill="#263238"/>
<path d="M167.358 114.984L171.067 119.88H168.297M62.8086 251.036C62.8086 251.036 53.2637 255.388 46.8345 265.477C43.4221 270.868 41.1966 276.407 43.2737 277.396C45.8948 278.682 49.3567 273.885 49.3567 273.885L54.5001 267.554C54.5001 267.554 53.0659 269.73 50.7909 274.676C48.7633 279.226 47.8236 283.825 50.3458 285.803C52.8681 287.831 55.4398 280.61 57.0718 277.445C58.6544 274.231 61.0282 270.868 61.0282 270.868C61.0282 270.868 59.1489 274.824 58.6544 276.901C57.8631 280.264 57.0718 286.842 60.9788 286.842C63.501 286.842 64.045 283.281 65.2814 279.127C67.3091 272.351 69.7819 267.703 72.8976 267.801C75.4198 267.851 75.0242 271.016 75.9638 274.824C77.398 280.61 80.3654 282.094 82.2941 279.424C85.1625 275.418 80.4643 256.822 80.4643 256.822M168.495 394.952C168.495 399.106 168.198 410.53 168.198 410.53C168.198 410.53 217.11 413.498 222.006 411.124C225.32 409.492 217.852 404.991 210.582 400.787C203.707 396.782 195.597 393.864 195.597 393.864M163.401 125.666C163.055 124.331 163.846 122.946 165.182 122.6C166.517 122.254 167.902 123.045 168.248 124.43C168.594 125.765 167.803 127.1 166.467 127.447C165.132 127.793 163.747 127.002 163.401 125.666Z" stroke="#263238" stroke-width="1.97817" stroke-linecap="round" stroke-linejoin="round"/>
<path d="M197.328 400.936L205.637 393.666M201.482 402.766L209.84 395.545" stroke="#FF4900" stroke-width="1.97817" stroke-linecap="round" stroke-linejoin="round"/>
</svg>
